<svg width="141" height="141" viewBox="0 0 141 141" fill="none" xmlns="http://www.w3.org/2000/svg">
<g clip-path="url(#clip0_1_2337)">
<path d="M105.466 97.443L102.143 100.766L108.788 107.412C109.229 107.852 109.827 108.1 110.45 108.1C111.073 108.1 111.671 107.852 112.111 107.412L125.405 94.1178L122.082 90.7949L110.45 102.427L105.466 97.443Z" fill="white"/>
<path d="M139.543 77.7384L134.725 75.7174C137.987 71.2265 140.059 65.9826 140.746 60.4748C141.434 54.967 140.715 49.3749 138.657 44.2199C136.599 39.0649 133.27 34.5151 128.978 30.9948C124.687 27.4745 119.574 25.0984 114.116 24.0882C112.762 19.818 110.082 16.091 106.464 13.4494C102.846 10.8079 98.4795 9.38955 93.9999 9.40084C91.4192 9.39346 88.8602 9.87178 86.4564 10.8108C82.2698 6.45248 77.0312 3.24591 71.2454 1.50012C65.4596 -0.245681 59.3216 -0.471851 53.4231 0.843399C47.5245 2.15865 42.0641 4.97098 37.568 9.00939C33.072 13.0478 29.6919 18.1761 27.7535 23.9002C19.8712 25.1676 12.7188 29.2579 7.62914 35.4086C2.53952 41.5593 -0.139968 49.3508 0.0900901 57.3309C0.320149 65.311 3.44406 72.9352 8.87956 78.7825C14.3151 84.6298 21.6913 88.3011 29.6335 89.1123C29.9234 89.2354 30.235 89.2993 30.55 89.3003V101.05C30.55 101.674 30.7975 102.271 31.2383 102.712C31.679 103.153 32.2767 103.4 32.9 103.4H39.9499V108.1H32.9C32.2767 108.1 31.679 108.348 31.2383 108.789C30.7975 109.229 30.55 109.827 30.55 110.45V138.65C30.55 139.273 30.7975 139.871 31.2383 140.312C31.679 140.752 32.2767 141 32.9 141H108.1C108.515 140.984 108.919 140.862 109.275 140.648C109.628 140.867 110.034 140.989 110.45 141C111.073 140.998 111.671 140.753 112.118 140.319L133.433 119.004C135.841 116.609 137.75 113.76 139.049 110.621C140.348 107.483 141.011 104.118 141 100.721V79.9004C141.002 79.4355 140.864 78.9808 140.604 78.5953C140.344 78.2098 139.974 77.9113 139.543 77.7384ZM30.55 72.8504V84.4594C23.5666 83.883 17.0485 80.7255 12.2675 75.603C7.48641 70.4804 4.78541 63.7603 4.69148 56.7539C4.59755 49.7475 7.11743 42.9574 11.7594 37.7085C16.4015 32.4597 22.8326 29.1286 29.798 28.3652C30.2598 28.3194 30.6972 28.1358 31.0534 27.8383C31.4096 27.5408 31.6681 27.143 31.7955 26.6967C33.3216 21.4348 36.2375 16.6814 40.2365 12.9363C44.2354 9.1912 49.1696 6.59287 54.5202 5.41455C59.8708 4.23622 65.4401 4.52144 70.6423 6.24021C75.8445 7.95898 80.4875 11.0478 84.0829 15.1818C84.4208 15.5722 84.8787 15.8394 85.3848 15.9415C85.8909 16.0436 86.4166 15.9747 86.8794 15.7458C89.0968 14.6628 91.5321 14.1002 93.9999 14.1008C97.6928 14.0939 101.28 15.334 104.18 17.6201C107.08 19.9061 109.124 23.1044 109.98 26.6967C110.088 27.1558 110.332 27.5716 110.68 27.8901C111.028 28.2087 111.464 28.4151 111.93 28.4827C118.67 29.4286 124.844 32.7715 129.319 37.8989C133.795 43.0262 136.273 49.5946 136.3 56.4005C136.302 62.7339 134.156 68.8808 130.213 73.8374L111.343 65.9885C111.063 65.8607 110.758 65.7945 110.45 65.7945C110.142 65.7945 109.837 65.8607 109.557 65.9885L101.05 69.5135V65.8005H108.1C108.723 65.8005 109.321 65.5529 109.762 65.1122C110.202 64.6715 110.45 64.0738 110.45 63.4505V35.2507C110.45 34.6274 110.202 34.0297 109.762 33.589C109.321 33.1483 108.723 32.9007 108.1 32.9007H32.9C32.2767 32.9007 31.679 33.1483 31.2383 33.589C30.7975 34.0297 30.55 34.6274 30.55 35.2507V63.4505C30.55 64.0738 30.7975 64.6715 31.2383 65.1122C31.679 65.5529 32.2767 65.8005 32.9 65.8005H39.9499V70.5005H32.9C32.2767 70.5005 31.679 70.748 31.2383 71.1887C30.7975 71.6294 30.55 72.2272 30.55 72.8504ZM35.25 61.1005V37.6007H105.75V61.1005H35.25ZM96.3499 65.8005V70.5005H44.6499V65.8005H96.3499ZM35.25 98.7003V75.2004H87.4199L81.3569 77.7384C80.9254 77.9113 80.5557 78.2098 80.2959 78.5953C80.0361 78.9808 79.8981 79.4355 79.8999 79.9004V98.7003H35.25ZM80.9809 108.1H44.6499V103.4H80.0409C80.1998 104.994 80.5147 106.568 80.9809 108.1ZM35.25 136.3V112.8H82.8844C84.0951 115.084 85.6395 117.175 87.4669 119.004L104.786 136.3H35.25ZM136.3 100.721C136.305 103.499 135.759 106.25 134.694 108.815C133.629 111.381 132.066 113.71 130.096 115.667L110.45 135.337L90.8039 115.667C88.8333 113.71 87.2704 111.381 86.2055 108.815C85.1406 106.25 84.5949 103.499 84.5999 100.721V81.4749L110.45 70.6885L136.3 81.4749V100.721Z" fill="white"/>
<path d="M132.493 82.4383L111.343 73.6259C111.063 73.498 110.758 73.4319 110.45 73.4319C110.142 73.4319 109.837 73.498 109.557 73.6259L88.4069 82.4383C87.9754 82.6112 87.6057 82.9097 87.3459 83.2952C87.0861 83.6807 86.9482 84.1354 86.9499 84.6003V100.721C86.9438 103.188 87.4266 105.631 88.3704 107.91C89.3143 110.189 90.7005 112.259 92.4489 113.999L108.781 130.331C108.998 130.554 109.258 130.732 109.544 130.853C109.831 130.974 110.139 131.036 110.45 131.036C110.761 131.036 111.069 130.974 111.356 130.853C111.642 130.732 111.902 130.554 112.118 130.331L128.451 113.999C130.199 112.259 131.586 110.189 132.529 107.91C133.473 105.631 133.956 103.188 133.95 100.721V84.6003C133.952 84.1354 133.814 83.6807 133.554 83.2952C133.294 82.9097 132.924 82.6112 132.493 82.4383ZM129.25 100.721C129.258 102.574 128.896 104.409 128.186 106.12C127.475 107.831 126.431 109.383 125.114 110.685L110.45 125.349L95.7859 110.685C94.4687 109.383 93.4244 107.831 92.7142 106.12C92.0041 104.409 91.6422 102.574 91.6499 100.721V86.1748L110.45 78.3258L129.25 86.1748V100.721Z" fill="white"/>
<path d="M47 42.3007C45.6056 42.3007 44.2426 42.7141 43.0832 43.4888C41.9238 44.2634 41.0202 45.3645 40.4866 46.6527C39.953 47.9409 39.8134 49.3584 40.0854 50.726C40.3574 52.0936 41.0289 53.3497 42.0148 54.3357C43.0008 55.3216 44.257 55.9931 45.6246 56.2651C46.9921 56.5371 48.4096 56.3975 49.6979 55.8639C50.9861 55.3303 52.0871 54.4267 52.8618 53.2674C53.6365 52.108 54.0499 50.745 54.0499 49.3506C54.0499 47.4809 53.3072 45.6877 51.9851 44.3655C50.6629 43.0434 48.8697 42.3007 47 42.3007ZM47 51.7006C46.5352 51.7006 46.0808 51.5628 45.6944 51.3046C45.3079 51.0463 45.0067 50.6793 44.8288 50.2499C44.651 49.8205 44.6044 49.348 44.6951 48.8922C44.7858 48.4363 45.0096 48.0176 45.3382 47.6889C45.6669 47.3603 46.0856 47.1365 46.5415 47.0458C46.9973 46.9551 47.4698 47.0016 47.8993 47.1795C48.3287 47.3574 48.6957 47.6586 48.9539 48.045C49.2121 48.4315 49.3499 48.8858 49.3499 49.3506C49.3499 49.9739 49.1024 50.5716 48.6617 51.0123C48.2209 51.453 47.6232 51.7006 47 51.7006Z" fill="white"/>
<path d="M65.7999 42.3007C64.4056 42.3007 63.0425 42.7141 61.8832 43.4888C60.7238 44.2634 59.8202 45.3645 59.2866 46.6527C58.753 47.9409 58.6134 49.3584 58.8854 50.726C59.1574 52.0936 59.8289 53.3497 60.8148 54.3357C61.8008 55.3216 63.057 55.9931 64.4245 56.2651C65.7921 56.5371 67.2096 56.3975 68.4978 55.8639C69.7861 55.3303 70.8871 54.4267 71.6618 53.2674C72.4364 52.108 72.8499 50.745 72.8499 49.3506C72.8499 47.4809 72.1072 45.6877 70.785 44.3655C69.4629 43.0434 67.6697 42.3007 65.7999 42.3007ZM65.7999 51.7006C65.3351 51.7006 64.8808 51.5628 64.4943 51.3046C64.1079 51.0463 63.8067 50.6793 63.6288 50.2499C63.451 49.8205 63.4044 49.348 63.4951 48.8922C63.5858 48.4363 63.8096 48.0176 64.1382 47.6889C64.4669 47.3603 64.8856 47.1365 65.3415 47.0458C65.7973 46.9551 66.2698 47.0016 66.6992 47.1795C67.1286 47.3574 67.4957 47.6586 67.7539 48.045C68.0121 48.4315 68.1499 48.8858 68.1499 49.3506C68.1499 49.9739 67.9023 50.5716 67.4616 51.0123C67.0209 51.453 66.4232 51.7006 65.7999 51.7006Z" fill="white"/>
<path d="M79.8999 42.3007H84.5999V47.0006H79.8999V42.3007Z" fill="white"/>
<path d="M79.8999 51.7006H84.5999V56.4005H79.8999V51.7006Z" fill="white"/>
<path d="M93.9999 42.3007H98.6999V47.0006H93.9999V42.3007Z" fill="white"/>
<path d="M93.9999 51.7006H98.6999V56.4005H93.9999V51.7006Z" fill="white"/>
<path d="M47 79.9004C45.6056 79.9004 44.2426 80.3139 43.0832 81.0885C41.9238 81.8632 41.0202 82.9642 40.4866 84.2525C39.953 85.5407 39.8134 86.9582 40.0854 88.3257C40.3574 89.6933 41.0289 90.9495 42.0148 91.9354C43.0008 92.9214 44.257 93.5928 45.6246 93.8648C46.9921 94.1369 48.4096 93.9973 49.6979 93.4637C50.9861 92.9301 52.0871 92.0265 52.8618 90.8671C53.6365 89.7077 54.0499 88.3447 54.0499 86.9504C54.0499 85.0806 53.3072 83.2874 51.9851 81.9653C50.6629 80.6432 48.8697 79.9004 47 79.9004ZM47 89.3003C46.5352 89.3003 46.0808 89.1625 45.6944 88.9043C45.3079 88.6461 45.0067 88.2791 44.8288 87.8496C44.651 87.4202 44.6044 86.9477 44.6951 86.4919C44.7858 86.036 45.0096 85.6173 45.3382 85.2887C45.6669 84.96 46.0856 84.7362 46.5415 84.6455C46.9973 84.5548 47.4698 84.6014 47.8993 84.7793C48.3287 84.9571 48.6957 85.2583 48.9539 85.6448C49.2121 86.0312 49.3499 86.4856 49.3499 86.9504C49.3499 87.5736 49.1024 88.1713 48.6617 88.612C48.2209 89.0528 47.6232 89.3003 47 89.3003Z" fill="white"/>
<path d="M65.7999 79.9004C64.4056 79.9004 63.0425 80.3139 61.8832 81.0885C60.7238 81.8632 59.8202 82.9642 59.2866 84.2525C58.753 85.5407 58.6134 86.9582 58.8854 88.3257C59.1574 89.6933 59.8289 90.9495 60.8148 91.9354C61.8008 92.9214 63.057 93.5928 64.4245 93.8648C65.7921 94.1369 67.2096 93.9973 68.4978 93.4637C69.7861 92.9301 70.8871 92.0265 71.6618 90.8671C72.4364 89.7077 72.8499 88.3447 72.8499 86.9504C72.8499 85.0806 72.1072 83.2874 70.785 81.9653C69.4629 80.6432 67.6697 79.9004 65.7999 79.9004ZM65.7999 89.3003C65.3351 89.3003 64.8808 89.1625 64.4943 88.9043C64.1079 88.6461 63.8067 88.2791 63.6288 87.8496C63.451 87.4202 63.4044 86.9477 63.4951 86.4919C63.5858 86.036 63.8096 85.6173 64.1382 85.2887C64.4669 84.96 64.8856 84.7362 65.3415 84.6455C65.7973 84.5548 66.2698 84.6014 66.6992 84.7793C67.1286 84.9571 67.4957 85.2583 67.7539 85.6448C68.0121 86.0312 68.1499 86.4856 68.1499 86.9504C68.1499 87.5736 67.9023 88.1713 67.4616 88.612C67.0209 89.0528 66.4232 89.3003 65.7999 89.3003Z" fill="white"/>
<path d="M47 117.5C45.6056 117.5 44.2426 117.914 43.0832 118.688C41.9238 119.463 41.0202 120.564 40.4866 121.852C39.953 123.14 39.8134 124.558 40.0854 125.925C40.3574 127.293 41.0289 128.549 42.0148 129.535C43.0008 130.521 44.257 131.193 45.6246 131.465C46.9921 131.737 48.4096 131.597 49.6979 131.063C50.9861 130.53 52.0871 129.626 52.8618 128.467C53.6365 127.307 54.0499 125.944 54.0499 124.55C54.0499 122.68 53.3072 120.887 51.9851 119.565C50.6629 118.243 48.8697 117.5 47 117.5ZM47 126.9C46.5352 126.9 46.0808 126.762 45.6944 126.504C45.3079 126.246 45.0067 125.879 44.8288 125.449C44.651 125.02 44.6044 124.547 44.6951 124.092C44.7858 123.636 45.0096 123.217 45.3382 122.888C45.6669 122.56 46.0856 122.336 46.5415 122.245C46.9973 122.155 47.4698 122.201 47.8993 122.379C48.3287 122.557 48.6957 122.858 48.9539 123.244C49.2121 123.631 49.3499 124.085 49.3499 124.55C49.3499 125.173 49.1024 125.771 48.6617 126.212C48.2209 126.652 47.6232 126.9 47 126.9Z" fill="white"/>
<path d="M65.7999 117.5C64.4056 117.5 63.0425 117.914 61.8832 118.688C60.7238 119.463 59.8202 120.564 59.2866 121.852C58.753 123.14 58.6134 124.558 58.8854 125.925C59.1574 127.293 59.8289 128.549 60.8148 129.535C61.8008 130.521 63.057 131.193 64.4245 131.465C65.7921 131.737 67.2096 131.597 68.4978 131.063C69.7861 130.53 70.8871 129.626 71.6618 128.467C72.4364 127.307 72.8499 125.944 72.8499 124.55C72.8499 122.68 72.1072 120.887 70.785 119.565C69.4629 118.243 67.6697 117.5 65.7999 117.5ZM65.7999 126.9C65.3351 126.9 64.8808 126.762 64.4943 126.504C64.1079 126.246 63.8067 125.879 63.6288 125.449C63.451 125.02 63.4044 124.547 63.4951 124.092C63.5858 123.636 63.8096 123.217 64.1382 122.888C64.4669 122.56 64.8856 122.336 65.3415 122.245C65.7973 122.155 66.2698 122.201 66.6992 122.379C67.1286 122.557 67.4957 122.858 67.7539 123.244C68.0121 123.631 68.1499 124.085 68.1499 124.55C68.1499 125.173 67.9023 125.771 67.4616 126.212C67.0209 126.652 66.4232 126.9 65.7999 126.9Z" fill="white"/>
<path d="M79.8999 117.5H84.5999V122.2H79.8999V117.5Z" fill="white"/>
<path d="M79.8999 126.9H84.5999V131.6H79.8999V126.9Z" fill="white"/>
<path d="M0 108.1H4.7V112.8H0V108.1Z" fill="white"/>
<path d="M9.39996 108.1H23.5V112.8H9.39996V108.1Z" fill="white"/>
<path d="M0 122.2H4.7V126.9H0V122.2Z" fill="white"/>
<path d="M9.39996 122.2H23.5V126.9H9.39996V122.2Z" fill="white"/>
<path d="M0 136.3H4.7V141H0V136.3Z" fill="white"/>
<path d="M9.39996 136.3H23.5V141H9.39996V136.3Z" fill="white"/>
</g>
<defs>
<clipPath id="clip0_1_2337">
<rect width="141" height="141" fill="white"/>
</clipPath>
</defs>
</svg>
