<svg width="146" height="146" viewBox="0 0 146 146" fill="none" xmlns="http://www.w3.org/2000/svg">
<g clip-path="url(#clip0_1_2290)">
<path d="M143.567 87.5993H129.364L116.206 83.2198L111.933 72.5324V64.4827C111.917 58.9162 107.717 54.2527 102.183 53.655C102.183 53.3212 102.2 52.9873 102.2 52.6546V17.0327C102.2 15.9574 101.495 15.0104 100.465 14.7015L51.7986 0.101502C51.3424 -0.0351359 50.8576 -0.0351359 50.4014 0.101502L1.7347 14.7015C0.705762 15.0104 0 15.9574 0 17.0327V52.6546C0 53.7834 0.0760417 54.8978 0.116439 56.0195C0.178223 57.6627 0.26971 59.2952 0.415853 60.9182C0.440804 61.195 0.474072 61.4552 0.5014 61.7285C3.4896 92.624 22.2077 119.792 50.0128 133.589C50.6972 133.931 51.5028 133.931 52.1883 133.589C55.8277 131.762 59.3422 129.692 62.7047 127.394C63.4687 128.447 64.4334 129.337 65.5444 130.013C63.1146 132.911 62.5835 136.953 64.1815 140.381C65.7796 143.807 69.2181 145.998 73 145.999H114.367C114.848 145.999 115.317 145.857 115.718 145.591L129.696 136.266H143.567C144.91 136.266 146 135.176 146 133.833V90.0327C146 88.6889 144.91 87.5993 143.567 87.5993ZM90.9019 75.6441L93.7392 82.7327H79.6014C84.7686 73.4639 87.5133 63.0402 87.5834 52.4277L97.3333 49.5036V52.6546C97.3333 53.175 97.3167 53.6931 97.3072 54.2147C92.9586 55.7593 90.0476 59.8679 90.0333 64.4827V71.1232C90.0322 72.6726 90.3268 74.2065 90.9019 75.6441ZM55.9667 92.466C55.969 94.9516 56.9279 97.3422 58.6436 99.141C57.7406 99.7981 56.8554 100.479 55.9227 101.087L51.1 104.173L46.2868 101.08C35.4972 94.1639 27.293 83.8768 22.9491 71.8195L82.6632 53.9045C82.3306 64.1143 79.3174 74.0568 73.9268 82.7327H65.7C60.3248 82.7327 55.9667 87.0908 55.9667 92.466ZM6.18789 67.4934C6.16888 67.371 6.14631 67.2499 6.1273 67.1322L15.7977 64.2391C16.084 65.6993 16.4321 67.1596 16.8218 68.5853L7.01247 71.5296C6.69167 70.1335 6.42671 68.8016 6.18789 67.4934ZM5.06628 57.7185L14.6903 54.8301C14.758 56.3557 14.8697 57.8718 15.0456 59.3748L5.44292 62.2561C5.41916 62.0374 5.40015 61.8212 5.3752 61.6014C5.25163 60.3467 5.13875 59.073 5.06628 57.7185ZM82.7333 29.336L19.4667 48.3155V30.915L51.1832 19.5884L82.7333 28.6005V29.336ZM82.7333 34.4165V39.0693L19.7982 57.949C19.6449 56.4377 19.5498 54.9157 19.5106 53.3841L82.7333 34.4165ZM97.3333 39.7703V44.4219L87.6 47.3424V42.6896L97.3333 39.7703ZM97.3333 34.6886L87.6 37.6091V32.9563L97.3333 30.037V34.6886ZM20.479 62.8252L60.0741 50.9484L82.7333 44.1498V48.8026L21.4818 67.1786C21.0968 65.7433 20.7534 64.2949 20.479 62.8252ZM4.86667 18.8434L51.1 4.97292L97.3333 18.8434V24.9552L87.6 27.8757V26.766C87.6 25.68 86.88 24.7259 85.8356 24.4277L51.7689 14.6944C51.2818 14.553 50.7602 14.5684 50.2826 14.7407L16.2159 26.9074C15.2464 27.2531 14.6 28.1704 14.6 29.1993V49.7757L4.86667 52.6962V18.8434ZM51.1 128.669C30.141 117.903 14.5857 98.9248 8.1424 76.2596L18.2821 73.2179C22.961 86.3898 31.8864 97.6309 43.6539 105.173L49.7835 109.113C50.5855 109.629 51.6145 109.629 52.4165 109.113L58.5461 105.173L58.6091 105.132C57.7525 109.169 59.5668 113.303 63.1181 115.406C61.6413 117.157 60.8321 119.375 60.8333 121.666C60.8381 122.005 60.8607 122.342 60.9011 122.678C57.7715 124.892 54.4981 126.894 51.1 128.669ZM113.637 141.133H73C70.3124 141.133 68.1333 138.954 68.1333 136.266C68.1286 133.74 70.076 131.638 72.596 131.45C73.9042 131.315 74.8797 130.185 74.8226 128.871C74.7715 127.564 73.6974 126.531 72.3893 126.533H70.5667C67.8791 126.533 65.7 124.354 65.7 121.666C65.7 118.978 67.8791 116.799 70.5667 116.799C71.9105 116.799 73 115.71 73 114.366C73 113.022 71.9105 111.933 70.5667 111.933H68.1333C65.4457 111.933 63.2667 109.754 63.2667 107.066C63.2667 104.378 65.4457 102.199 68.1333 102.199C69.4771 102.199 70.5667 101.11 70.5667 99.766C70.5667 98.4222 69.4771 97.3327 68.1333 97.3327H65.7C63.0124 97.3327 60.8333 95.1536 60.8333 92.466C60.8333 89.7784 63.0124 87.5993 65.7 87.5993H97.3333C98.1413 87.6005 98.8969 87.2001 99.3496 86.53C99.8035 85.8611 99.895 85.0115 99.5944 84.2606L95.4228 73.837C95.0759 72.9744 94.8988 72.0536 94.9 71.1232V64.4827C94.9 61.1226 97.6232 58.3993 100.983 58.3993C104.343 58.3993 107.067 61.1226 107.067 64.4827V72.9993C107.067 73.3094 107.126 73.616 107.239 73.9047L112.106 86.0714C112.374 86.7344 112.92 87.2476 113.598 87.4758L126.533 91.7876V132.53L113.637 141.133ZM141.133 131.399H131.4V92.466H141.133V131.399Z" fill="white"/>
<path d="M128.042 31.2437L124.715 34.7974C125.826 35.837 126.871 36.9456 127.843 38.1159L131.585 35.0041C130.484 33.6782 129.301 32.4223 128.042 31.2437Z" fill="white"/>
<path d="M141.133 61.4393C141.133 60.4852 141.101 59.5406 141.036 58.6044L136.181 58.9335C136.237 59.7604 136.266 60.5957 136.267 61.4393C136.267 62.1284 136.248 62.814 136.208 63.4936L141.075 63.7728C141.114 62.9993 141.133 62.2211 141.133 61.4393Z" fill="white"/>
<path d="M124.063 27.9572C122.668 26.9425 121.212 26.0158 119.7 25.1829L117.352 29.4436C118.684 30.1743 119.969 30.987 121.2 31.8769L124.063 27.9572Z" fill="white"/>
<path d="M140.462 68.8973L135.673 68.0264C135.402 69.5223 135.036 70.9991 134.578 72.4475L139.216 73.9077C139.736 72.2657 140.152 70.5928 140.462 68.8973Z" fill="white"/>
<path d="M115.024 22.9753C113.42 22.3385 111.778 21.8038 110.106 21.3749L108.889 26.0883C110.363 26.4685 111.811 26.939 113.226 27.4998L115.024 22.9753Z" fill="white"/>
<path d="M131.704 79.1202L135.963 81.4799C136.45 80.5876 136.936 79.6727 137.351 78.7353L132.933 76.7012C132.56 77.5234 132.151 78.3301 131.704 79.1202Z" fill="white"/>
<path d="M130.536 41.7956C131.354 43.0752 132.092 44.4047 132.746 45.7759L137.14 43.6883C136.4 42.1318 135.563 40.6229 134.634 39.1721L130.536 41.7956Z" fill="white"/>
<path d="M134.442 50.0021C134.916 51.4457 135.299 52.9178 135.591 54.4089L140.367 53.4822C140.038 51.7891 139.603 50.1173 139.062 48.4789L134.442 50.0021Z" fill="white"/>
<path d="M109.466 46.4091C115.379 48.751 119.254 54.4743 119.233 60.8333H124.1C124.129 52.4818 119.038 44.9655 111.274 41.8894L110.405 41.5425L108.595 46.0586L109.466 46.4091Z" fill="white"/>
</g>
<defs>
<clipPath id="clip0_1_2290">
<rect width="146" height="146" fill="white"/>
</clipPath>
</defs>
</svg>
