<svg width="150" height="148" viewBox="0 0 150 148" fill="none" xmlns="http://www.w3.org/2000/svg">
<path d="M56.5574 83.8671H7.37705C5.42233 83.8729 3.54934 84.6544 2.16714 86.0409C0.784935 87.4274 0.00583793 89.3062 0 91.267V140.6C0.00583793 142.561 0.784935 144.44 2.16714 145.826C3.54934 147.213 5.42233 147.994 7.37705 148H56.5574C58.5121 147.994 60.3851 147.213 61.7673 145.826C63.1495 144.44 63.9286 142.561 63.9344 140.6V91.267C63.9286 89.3062 63.1495 87.4274 61.7673 86.0409C60.3851 84.6544 58.5121 83.8729 56.5574 83.8671ZM59.0164 140.6C59.0164 141.254 58.7573 141.882 58.2962 142.344C57.835 142.807 57.2095 143.067 56.5574 143.067H7.37705C6.72488 143.067 6.09942 142.807 5.63826 142.344C5.17711 141.882 4.91803 141.254 4.91803 140.6V103.6H59.0164V140.6ZM59.0164 98.667H4.91803V91.267C4.91803 90.6128 5.17711 89.9854 5.63826 89.5228C6.09942 89.0602 6.72488 88.8004 7.37705 88.8004H56.5574C57.2095 88.8004 57.835 89.0602 58.2962 89.5228C58.7573 89.9854 59.0164 90.6128 59.0164 91.267V98.667Z" fill="white"/>
<path d="M19.6721 91.267H24.5902V96.2003H19.6721V91.267Z" fill="white"/>
<path d="M29.5082 91.267H34.4262V96.2003H29.5082V91.267Z" fill="white"/>
<path d="M9.83607 91.267H14.7541V96.2003H9.83607V91.267Z" fill="white"/>
<path d="M131.975 14.8748C130.746 11.3742 128.254 8.46255 124.99 6.71383C121.727 4.96511 117.928 4.5062 114.344 5.42755C111.864 3.06055 108.81 1.38499 105.486 0.567025C102.161 -0.250941 98.6808 -0.182895 95.3904 0.764417C92.1 1.71173 89.1136 3.5054 86.7274 5.96754C84.3412 8.42969 82.638 11.4748 81.7869 14.8008C79.5264 14.7587 77.2798 15.1636 75.1754 15.9925C73.0709 16.8213 71.1498 18.0578 69.5217 19.6313C66.2337 22.8093 64.3389 27.1673 64.2541 31.7467C64.1693 36.3261 65.9015 40.7517 69.0697 44.0499C72.2378 47.3482 76.5823 49.2489 81.1475 49.3339H130.328C134.76 49.3486 139.027 47.6476 142.24 44.5854C145.454 41.5231 147.366 37.3355 147.578 32.8946C147.79 28.4537 146.287 24.1018 143.38 20.7452C140.474 17.3885 136.389 15.2857 131.975 14.8748ZM130.328 44.4006H81.1475C77.8867 44.4006 74.7594 43.1012 72.4536 40.7883C70.1478 38.4754 68.8524 35.3384 68.8524 32.0674C68.8524 28.7964 70.1478 25.6594 72.4536 23.3465C74.7594 21.0335 77.8867 19.7341 81.1475 19.7341C81.881 19.743 82.6127 19.8089 83.3361 19.9315C83.6635 19.9939 84.0002 19.989 84.3257 19.9169C84.6512 19.8448 84.9587 19.7071 85.2295 19.5121C85.763 19.1032 86.1161 18.5013 86.2131 17.8348C86.5693 15.0226 87.7252 12.3728 89.5427 10.2021C91.3602 8.03136 93.7624 6.43154 96.4622 5.59385C99.162 4.75616 102.045 4.71604 104.767 5.47828C107.489 6.24052 109.935 7.77287 111.811 9.89219C112.145 10.2606 112.581 10.5207 113.063 10.6393C113.544 10.758 114.051 10.7297 114.516 10.5582C115.847 10.0376 117.274 9.81526 118.7 9.90664C120.125 9.99803 121.512 10.401 122.766 11.0872C124.019 11.7734 125.108 12.7264 125.955 13.8792C126.803 15.032 127.389 16.3569 127.672 17.7608C127.78 18.3205 128.081 18.8245 128.521 19.1851C128.961 19.5456 129.514 19.7399 130.082 19.7341H130.377C133.638 19.7407 136.763 21.0463 139.064 23.3639C141.365 25.6815 142.654 28.8211 142.648 32.0921C142.641 35.363 141.339 38.4974 139.029 40.8058C136.719 43.1141 133.589 44.4072 130.328 44.4006Z" fill="white"/>
<path d="M142.623 74.0005C142.603 92.3118 135.342 109.867 122.434 122.815C109.526 135.763 92.0251 143.046 73.7705 143.067V138.133C90.722 138.117 106.974 131.355 118.961 119.331C130.947 107.308 137.689 91.0046 137.705 74.0005H142.623Z" fill="white"/>
<path d="M73.7705 4.9342V9.86751C56.819 9.88383 40.5665 16.6459 28.58 28.6696C16.5935 40.6934 9.85234 56.9963 9.83606 74.0004H4.91803C4.93821 55.6892 12.1988 38.1336 25.1067 25.1856C38.0147 12.2375 55.5159 4.95444 73.7705 4.9342Z" fill="white"/>
<path d="M56.1275 17.4457L60.8778 16.1681L62.152 20.9355L57.4018 22.2131L56.1275 17.4457Z" fill="white"/>
<path d="M42.1328 23.9742L46.3897 21.5088L48.8475 25.7789L44.5906 28.2443L42.1328 23.9742Z" fill="white"/>
<path d="M30.2936 33.8835L33.7712 30.3952L37.2488 33.8835L33.7712 37.3719L30.2936 33.8835Z" fill="white"/>
<path d="M21.4291 46.5364L23.8881 42.2641L28.1471 44.7308L25.6881 49.003L21.4291 46.5364Z" fill="white"/>
<path d="M16.1372 61.0698L17.4108 56.3048L22.1611 57.5824L20.8875 62.3474L16.1372 61.0698Z" fill="white"/>
<path d="M14.7541 71.5338H19.6721V76.4671H14.7541V71.5338Z" fill="white"/>
<path d="M71.3115 128.267H76.2295V133.2H71.3115V128.267Z" fill="white"/>
<path d="M85.4276 127.048L90.1778 125.77L91.4521 130.538L86.7018 131.815L85.4276 127.048Z" fill="white"/>
<path d="M98.6791 122.25L102.936 119.785L105.394 124.055L101.137 126.52L98.6791 122.25Z" fill="white"/>
<path d="M110.261 114.116L113.738 110.627L117.216 114.116L113.738 117.604L110.261 114.116Z" fill="white"/>
<path d="M119.389 103.268L121.848 98.9953L126.107 101.462L123.648 105.734L119.389 103.268Z" fill="white"/>
<path d="M125.419 90.4363L126.692 85.6713L131.442 86.9488L130.169 91.7139L125.419 90.4363Z" fill="white"/>
<path d="M127.869 71.5338H132.787V76.4671H127.869V71.5338Z" fill="white"/>
<path d="M125.409 57.5541L130.16 56.2765L131.433 61.0415L126.683 62.3191L125.409 57.5541Z" fill="white"/>
<path d="M112.351 66.3215H91.5892C91.2324 66.3215 90.9404 66.616 90.9404 66.976V70.9026C90.9404 71.2626 91.2324 71.5571 91.5892 71.5571H112.351C112.708 71.5571 113 71.2626 113 70.9026V66.976C113 66.616 112.708 66.3215 112.351 66.3215ZM101.484 77.447H91.5892C91.2324 77.447 90.9404 77.7415 90.9404 78.1014V82.0281C90.9404 82.388 91.2324 82.6825 91.5892 82.6825H101.484C101.84 82.6825 102.132 82.388 102.132 82.0281V78.1014C102.132 77.7415 101.84 77.447 101.484 77.447ZM74.42 59H70.9083C70.4055 59 70 59.409 70 59.9162V80.2038C70 80.4983 70.1379 80.7683 70.3731 80.9401L82.4491 89.8241C82.8546 90.1186 83.4223 90.0368 83.7143 89.6278L85.7986 86.7564V86.7482C86.0905 86.3392 86.0013 85.7666 85.5958 85.4721L75.3203 77.9787V59.9162C75.3284 59.409 74.9147 59 74.42 59Z" fill="white"/>
</svg>
