<svg width="455" height="472" viewBox="0 0 455 472" fill="none" xmlns="http://www.w3.org/2000/svg">
<path d="M180.174 426.888C181.543 426.888 182.912 426.534 184.133 425.831L245.142 390.64L244.621 389.738L183.612 424.929C181.481 426.158 178.84 426.153 176.717 424.918L158.906 414.564L59.145 357.019C58.6842 356.753 58.4092 356.277 58.4076 355.745C58.4076 355.212 58.6826 354.736 59.145 354.469L162.61 294.788L162.089 293.887L58.6238 353.567C57.8356 354.021 57.3652 354.837 57.3652 355.745C57.3652 356.653 57.8356 357.468 58.6238 357.92L158.383 415.464L176.192 425.817C177.419 426.531 178.797 426.887 180.174 426.888Z" fill="#8686F2"/>
<path opacity="0.4" d="M82.3329 222.89L129.896 195.454L193.574 232.185L146.012 259.62L82.3329 222.89Z" fill="url(#paint0_linear_1_3090)"/>
<path opacity="0.6" d="M257.253 195.456L304.813 222.89L241.135 259.621L193.574 232.187L257.253 195.456Z" fill="url(#paint1_linear_1_3090)"/>
<path opacity="0.6" d="M304.811 296.35L257.25 323.786L193.572 287.054L241.135 259.62L304.811 296.35Z" fill="url(#paint2_linear_1_3090)"/>
<path opacity="0.4" d="M129.893 323.785L82.3314 296.352L146.012 259.62L193.572 287.054L129.893 323.785Z" fill="url(#paint3_linear_1_3090)"/>
<path d="M193.575 311.778C194.527 311.778 195.439 311.582 196.132 311.181L253.635 278.012C254.378 277.583 254.787 276.971 254.785 276.282C254.785 275.488 254.226 274.711 253.25 274.149L196.521 241.425C194.784 240.423 192.234 240.327 190.715 241.205L133.212 274.372C132.47 274.8 132.06 275.413 132.062 276.102C132.062 276.896 132.623 277.674 133.597 278.236L190.327 310.958C191.268 311.503 192.448 311.778 193.575 311.778ZM195.689 310.411C194.459 311.119 192.207 311.019 190.77 310.188L134.042 277.464C133.358 277.071 132.952 276.563 132.952 276.102C132.95 275.646 133.335 275.329 133.656 275.143L191.158 241.975C192.386 241.268 194.637 241.37 196.075 242.197L252.805 274.921C253.487 275.315 253.894 275.823 253.894 276.283C253.895 276.739 253.511 277.056 253.19 277.242L195.689 310.411Z" fill="#8686F2"/>
<path d="M132.509 251.921V258.972L193.571 294.195L254.638 258.972V251.919L132.509 251.921Z" fill="url(#paint4_linear_1_3090)"/>
<path d="M193.571 287.146L254.638 251.92L193.573 216.698L132.509 251.921L193.571 287.146Z" fill="#BCBEFF"/>
<path d="M193.571 286.32L253.924 251.51L254.638 251.919L193.571 287.146L132.509 251.921L133.222 251.511L193.571 286.32Z" fill="white"/>
<path d="M193.571 279.022L240.539 251.929L193.572 224.838L146.606 251.929L193.571 279.022Z" fill="#0F054C"/>
<path opacity="0.5" d="M193.57 279.022L240.541 251.929L193.572 224.838L146.605 251.929L193.57 279.022Z" fill="url(#paint5_linear_1_3090)"/>
<path opacity="0.5" d="M193.572 218.006L146.605 245.097V251.929L193.572 224.837V218.006Z" fill="url(#paint6_linear_1_3090)"/>
<path opacity="0.5" d="M193.57 224.838L240.541 251.929V245.096L193.572 218.006L193.57 224.838Z" fill="url(#paint7_linear_1_3090)"/>
<path opacity="0.5" d="M193.57 272.19L240.541 245.096L193.572 218.006L146.605 245.098L193.57 272.19Z" fill="url(#paint8_linear_1_3090)"/>
<path opacity="0.5" d="M193.572 255.923L212.339 245.097L193.572 234.273L174.805 245.097L193.572 255.923Z" fill="#42E8E0"/>
<path opacity="0.5" d="M193.572 235.268L175.669 245.596L174.805 245.097L193.572 234.273L212.339 245.097L211.476 245.596L193.572 235.268Z" fill="#42E8E0"/>
<path opacity="0.5" d="M193.57 272.19V279.022L146.605 251.929V245.098L193.57 272.19Z" fill="url(#paint9_linear_1_3090)"/>
<path opacity="0.5" d="M240.541 245.096V251.929L193.57 279.022V272.19L240.541 245.096Z" fill="url(#paint10_linear_1_3090)"/>
<path opacity="0.8" d="M193.57 271.444L239.894 244.724L240.541 245.096L193.57 272.19L146.605 245.097L147.25 244.726L193.57 271.444Z" fill="#42E8E0"/>
<path d="M315.806 171.97L424.335 109.368L315.809 46.7695L207.281 109.371L315.806 171.97Z" fill="#BCBEFF"/>
<path opacity="0.7" d="M315.806 166.332L414.561 109.37L315.809 52.4072L217.057 109.371L315.806 166.332Z" fill="#453C9E"/>
<path d="M315.806 430.102C317.479 430.102 319.152 429.671 320.645 428.811L453.575 352.133C454.468 351.619 455 350.697 455 349.665C455 348.636 454.468 347.713 453.575 347.197L315.809 267.73L173.761 349.666L310.965 428.809C312.459 429.67 314.132 430.102 315.806 430.102ZM320.125 427.907C317.462 429.443 314.152 429.441 311.488 427.907L175.849 349.668L315.811 268.934L453.055 348.099C453.621 348.426 453.959 349.01 453.959 349.663C453.959 350.317 453.621 350.901 453.055 351.228L320.125 427.907Z" fill="#8686F2"/>
<path d="M315.806 412.266L424.335 349.666L315.809 287.066L207.281 349.668L315.806 412.266Z" fill="white"/>
<path d="M207.281 109.371V349.668L315.806 412.266V171.97L207.281 109.371Z" fill="url(#paint11_linear_1_3090)"/>
<path d="M424.335 109.368V349.666L315.806 412.266V171.97L424.335 109.368Z" fill="#24126A"/>
<g opacity="0.51">
<path opacity="0.51" d="M416.983 125.311V341.298L323.159 395.418V179.433L416.983 125.311Z" fill="#453C9E"/>
</g>
<path d="M223.559 167.429V173.781L299.527 217.6V211.248L223.559 167.429Z" fill="#453C9E"/>
<path d="M223.559 194.284V200.636L299.527 244.455V238.103L223.559 194.284Z" fill="#453C9E"/>
<path d="M223.559 221.139V227.491L299.527 271.309V264.959L223.559 221.139Z" fill="#453C9E"/>
<path d="M223.559 247.995V254.346L299.527 298.166V291.814L223.559 247.995Z" fill="#453C9E"/>
<path d="M223.559 274.85V281.202L299.527 325.02V318.668L223.559 274.85Z" fill="#453C9E"/>
<path d="M223.559 301.704V308.056L299.527 351.875V345.524L223.559 301.704Z" fill="#453C9E"/>
<path d="M315.806 169.936L422.572 108.352L424.335 109.368L315.806 171.971L207.281 109.371L209.045 108.354L315.806 169.936Z" fill="white"/>
<g opacity="0.51">
<path opacity="0.51" d="M424.335 311.692L315.807 246.223L315.806 171.97L424.335 109.368V311.692Z" fill="#453C9E"/>
</g>
<path d="M405.748 201.805L392.243 209.595L392.24 207.255L405.745 199.463L405.748 201.805Z" fill="#42E8E0"/>
<path d="M390.072 210.84L382.713 215.085L382.709 212.745L390.07 208.498L390.072 210.84Z" fill="#42E8E0"/>
<path d="M371.263 221.68L365.938 224.754L365.937 222.41L371.262 219.34L371.263 221.68Z" fill="#42E8E0"/>
<path d="M375.147 219.441L373.326 220.491L373.324 218.149L375.144 217.1L375.147 219.441Z" fill="#42E8E0"/>
<path d="M380.515 216.344L377.21 218.251L377.208 215.909L380.512 214.004L380.515 216.344Z" fill="#42E8E0"/>
<path d="M393.263 219.711L387.938 222.783L387.936 220.442L393.259 217.37L393.263 219.711Z" fill="#42E8E0"/>
<path d="M405.76 212.502L395.326 218.52L395.324 216.18L405.756 210.162L405.76 212.502Z" fill="#42E8E0"/>
<path d="M386.309 250.449L375.876 256.466L375.875 254.125L386.306 248.106L386.309 250.449Z" fill="#42E8E0"/>
<path d="M391.677 247.352L388.371 249.259L388.37 246.917L391.673 245.01L391.677 247.352Z" fill="#42E8E0"/>
<path d="M386.363 239.738L375.93 245.755L375.929 243.413L386.361 237.395L386.363 239.738Z" fill="#42E8E0"/>
<path d="M391.731 236.638L388.425 238.547L388.424 236.205L391.729 234.298L391.731 236.638Z" fill="#42E8E0"/>
<path d="M386.245 296.678L405.899 285.341L405.901 287.683L386.247 299.018L386.245 296.678Z" fill="#42E8E0"/>
<path d="M379.318 300.672L384.181 297.868L384.184 300.208L379.32 303.014L379.318 300.672Z" fill="#42E8E0"/>
<path d="M347.487 302.943L367.141 291.605L367.143 293.947L347.49 305.284L347.487 302.943Z" fill="#42E8E0"/>
<path d="M340.562 306.939L345.425 304.133L345.426 306.475L340.564 309.279L340.562 306.939Z" fill="#42E8E0"/>
<path d="M400.57 283.064L405.893 279.992L405.896 282.333L400.571 285.404L400.57 283.064Z" fill="#42E8E0"/>
<path d="M369.975 289.995L375.3 286.923L375.301 289.265L369.976 292.336L369.975 289.995Z" fill="#42E8E0"/>
<path d="M388.073 290.272L398.505 284.253L398.506 286.595L388.074 292.612L388.073 290.272Z" fill="#42E8E0"/>
<path d="M382.705 293.369L386.008 291.462L386.012 293.803L382.706 295.709L382.705 293.369Z" fill="#42E8E0"/>
<path d="M370.114 300.62L380.547 294.601L380.548 296.943L370.116 302.961L370.114 300.62Z" fill="#42E8E0"/>
<path d="M364.748 303.716L368.052 301.809L368.053 304.151L364.75 306.058L364.748 303.716Z" fill="#42E8E0"/>
<path d="M369.979 295.347L375.304 292.273L375.306 294.617L369.982 297.687L369.979 295.347Z" fill="#42E8E0"/>
<path d="M357.484 302.555L367.917 296.538L367.918 298.878L357.486 304.897L357.484 302.555Z" fill="#42E8E0"/>
<path d="M352.116 305.651L355.42 303.746L355.422 306.086L352.118 307.995L352.116 305.651Z" fill="#42E8E0"/>
<path d="M394.993 280.928L405.888 274.643L405.89 276.983L394.995 283.269L394.993 280.928Z" fill="#42E8E0"/>
<path d="M385.05 286.661L392.929 282.118L392.932 284.459L385.053 289.005L385.05 286.661Z" fill="#42E8E0"/>
<path d="M377.664 290.926L382.988 287.852L382.991 290.194L377.666 293.266L377.664 290.926Z" fill="#42E8E0"/>
<path d="M341.643 244.105L330.748 250.389L330.746 248.049L341.64 241.764L341.643 244.105Z" fill="#42E8E0"/>
<path d="M351.584 238.369L343.705 242.914L343.704 240.574L351.581 236.029L351.584 238.369Z" fill="#42E8E0"/>
<path d="M358.972 234.108L353.648 237.178L353.645 234.838L358.97 231.766L358.972 234.108Z" fill="#42E8E0"/>
<path d="M346.161 236.128L335.267 242.411L335.264 240.07L346.159 233.784L346.161 236.128Z" fill="#42E8E0"/>
<path d="M356.103 230.391L348.225 234.936L348.223 232.593L356.102 228.049L356.103 230.391Z" fill="#42E8E0"/>
<path d="M363.491 226.128L358.166 229.2L358.164 226.859L363.489 223.788L363.491 226.128Z" fill="#42E8E0"/>
<path d="M384.745 246.025L381.066 248.147L381.063 245.807L384.743 243.685L384.745 246.025Z" fill="#42E8E0"/>
<path d="M391.67 242.03L386.808 244.834L386.806 242.493L391.669 239.687L391.67 242.03Z" fill="#42E8E0"/>
<path d="M394.919 275.61L405.814 269.324L405.817 271.666L394.922 277.951L394.919 275.61Z" fill="#42E8E0"/>
<path d="M384.977 281.346L392.856 276.801L392.859 279.143L384.98 283.686L384.977 281.346Z" fill="#42E8E0"/>
<path d="M377.589 285.607L382.914 282.537L382.916 284.877L377.591 287.949L377.589 285.607Z" fill="#42E8E0"/>
<path d="M402.129 266.1L405.809 263.976L405.811 266.317L402.132 268.442L402.129 266.1Z" fill="#42E8E0"/>
<path d="M395.203 270.096L400.065 267.291L400.067 269.633L395.204 272.437L395.203 270.096Z" fill="#42E8E0"/>
<path d="M385.304 275.805L393.139 271.285L393.14 273.627L385.306 278.147L385.304 275.805Z" fill="#42E8E0"/>
<path d="M382.441 231.276L378.762 233.398L378.759 231.058L382.439 228.936L382.441 231.276Z" fill="#42E8E0"/>
<path d="M389.368 227.281L384.505 230.085L384.503 227.745L389.366 224.939L389.368 227.281Z" fill="#42E8E0"/>
<path d="M399.266 221.57L391.432 226.09L391.429 223.748L399.265 219.23L399.266 221.57Z" fill="#42E8E0"/>
<path d="M376.002 239.958L368.166 244.48L368.164 242.137L376 237.618L376.002 239.958Z" fill="#42E8E0"/>
<path d="M388.753 232.987L378.192 239.079L378.19 236.737L388.751 230.646L388.753 232.987Z" fill="#42E8E0"/>
<path d="M394.119 229.889L390.815 231.796L390.814 229.454L394.117 227.549L394.119 229.889Z" fill="#42E8E0"/>
<path d="M399.272 226.917L395.967 228.824L395.966 226.484L399.269 224.577L399.272 226.917Z" fill="#42E8E0"/>
<path d="M393.995 257.141L383.563 263.16L383.56 260.819L393.992 254.801L393.995 257.141Z" fill="#42E8E0"/>
<path d="M399.363 254.044L396.059 255.95L396.056 253.61L399.36 251.704L399.363 254.044Z" fill="#42E8E0"/>
<path d="M392.377 263.43L388.697 265.554L388.694 263.213L392.374 261.09L392.377 263.43Z" fill="#42E8E0"/>
<path d="M381.192 259.143L377.511 261.266L377.51 258.924L381.189 256.801L381.192 259.143Z" fill="#42E8E0"/>
<path d="M375.946 262.164L367.117 267.256L367.116 264.914L375.943 259.824L375.946 262.164Z" fill="#42E8E0"/>
<path d="M365.552 268.156L360.3 271.184L360.297 268.844L365.549 265.814L365.552 268.156Z" fill="#42E8E0"/>
<path d="M399.303 259.436L394.44 262.239L394.438 259.899L399.301 257.094L399.303 259.436Z" fill="#42E8E0"/>
<path d="M398.878 264.932L395.2 267.054L395.196 264.713L398.877 262.59L398.878 264.932Z" fill="#42E8E0"/>
<path d="M405.805 260.934L400.943 263.741L400.94 261.399L405.804 258.592L405.805 260.934Z" fill="#42E8E0"/>
<path d="M386.53 256.068L383.226 257.973L383.224 255.631L386.528 253.725L386.53 256.068Z" fill="#42E8E0"/>
<path d="M391.681 253.096L388.378 255.003L388.375 252.66L391.68 250.754L391.681 253.096Z" fill="#42E8E0"/>
<path d="M372.665 226.209L361.393 232.712L361.39 230.371L372.662 223.868L372.665 226.209Z" fill="#42E8E0"/>
<path d="M385.288 218.927L374.727 225.021L374.724 222.679L385.285 216.585L385.288 218.927Z" fill="#42E8E0"/>
<path d="M390.656 215.831L387.353 217.736L387.349 215.394L390.653 213.489L390.656 215.831Z" fill="#42E8E0"/>
<path d="M395.807 212.859L392.503 214.766L392.5 212.424L395.805 210.518L395.807 212.859Z" fill="#42E8E0"/>
<path d="M398.623 211.233L405.753 207.122L405.752 204.78L398.622 208.893L398.623 211.233Z" fill="#42E8E0"/>
<path d="M315.806 125.202L424.335 62.6L315.809 0L207.281 62.6016L315.806 125.202Z" fill="#BCBEFF"/>
<path d="M315.806 108.107L394.702 62.5998L315.809 17.0938L236.916 62.6014L315.806 108.107Z" fill="#453C9E"/>
<path d="M315.809 20.1753L239.585 64.1414L236.916 62.6014L315.809 17.0938L394.702 62.5998L392.029 64.1398L315.809 20.1753Z" fill="white"/>
<path d="M207.281 62.6016V98.0866L315.806 160.687V125.202L207.281 62.6016Z" fill="url(#paint12_linear_1_3090)"/>
<path d="M424.335 62.5996V98.083L315.806 160.686V125.201L424.335 62.5996Z" fill="#24126A"/>
<g opacity="0.51">
<path opacity="0.51" d="M416.983 78.543V89.7167L323.159 143.837V132.663L416.983 78.543Z" fill="#453C9E"/>
</g>
<path d="M315.806 123.168L422.572 61.5825L424.335 62.6002L315.806 125.202L207.281 62.6018L209.045 61.5857L315.806 123.168Z" fill="white"/>
<path d="M223.559 87.4668V93.8189L299.527 137.637V131.287L223.559 87.4668Z" fill="#453C9E"/>
<path opacity="0.51" d="M424.335 62.5996V98.083L315.806 160.686V125.201L424.335 62.5996Z" fill="#453C9E"/>
<path d="M347.487 123.316L367.141 111.979L367.143 114.32L347.49 125.657L347.487 123.316Z" fill="#42E8E0"/>
<path d="M369.975 110.368L375.3 107.298L375.301 109.638L369.976 112.71L369.975 110.368Z" fill="#42E8E0"/>
<path d="M394.918 95.9846L405.813 89.6992L405.816 92.0394L394.922 98.3248L394.918 95.9846Z" fill="#42E8E0"/>
<path d="M384.977 101.719L392.856 97.1738L392.859 99.5156L384.98 104.061L384.977 101.719Z" fill="#42E8E0"/>
<path d="M377.589 105.98L382.914 102.908L382.916 105.252L377.591 108.322L377.589 105.98Z" fill="#42E8E0"/>
<path d="M315.696 32.718L319.143 30.7318L315.696 28.7441L312.251 30.7318L315.696 32.718Z" fill="#42E8E0"/>
<path opacity="0.1" d="M308.804 36.6951L312.25 34.7074L308.804 32.7197L305.358 34.7074L308.804 36.6951Z" fill="#42E8E0"/>
<path opacity="0.4" d="M301.911 40.6698L305.358 38.6821L301.911 36.6943L298.466 38.6821L301.911 40.6698Z" fill="#42E8E0"/>
<path d="M295.019 44.6453L298.466 42.6576L295.019 40.6699L291.572 42.6576L295.019 44.6453Z" fill="#42E8E0"/>
<path opacity="0.4" d="M288.127 48.6225L291.572 46.6332L288.127 44.6455L284.68 46.6332L288.127 48.6225Z" fill="#42E8E0"/>
<path d="M281.234 52.5964L284.681 50.6103L281.234 48.6226L277.787 50.6103L281.234 52.5964Z" fill="#42E8E0"/>
<path d="M274.342 56.5721L277.787 54.5844L274.342 52.5967L270.897 54.5844L274.342 56.5721Z" fill="#42E8E0"/>
<path d="M267.45 60.5488L270.897 58.5595L267.45 56.5718L264.003 58.5595L267.45 60.5488Z" fill="#42E8E0"/>
<path opacity="0.1" d="M260.558 64.5242L264.003 62.5365L260.558 60.5488L257.111 62.5365L260.558 64.5242Z" fill="#42E8E0"/>
<path d="M322.617 36.7108L326.063 34.7231L322.617 32.7354L319.17 34.7231L322.617 36.7108Z" fill="#42E8E0"/>
<path d="M315.723 40.6863L319.17 38.6986L315.723 36.7109L312.278 38.6986L315.723 40.6863Z" fill="#42E8E0"/>
<path d="M308.833 44.6615L312.278 42.6738L308.833 40.686L305.386 42.6738L308.833 44.6615Z" fill="#42E8E0"/>
<path d="M301.939 48.637L305.386 46.6493L301.939 44.6616L298.494 46.6493L301.939 48.637Z" fill="#42E8E0"/>
<path d="M295.048 52.6126L298.494 50.6249L295.048 48.6372L291.601 50.6249L295.048 52.6126Z" fill="#42E8E0"/>
<path d="M288.156 56.5893L291.601 54.6016L288.156 52.6123L284.709 54.6016L288.156 56.5893Z" fill="#42E8E0"/>
<path d="M281.262 60.5648L284.709 58.5771L281.262 56.5894L277.816 58.5771L281.262 60.5648Z" fill="#42E8E0"/>
<path d="M274.37 64.5399L277.816 62.5522L274.37 60.5645L270.924 62.5522L274.37 64.5399Z" fill="#42E8E0"/>
<path d="M267.477 68.5154L270.924 66.5277L267.477 64.54L264.03 66.5277L267.477 68.5154Z" fill="#42E8E0"/>
<path d="M329.537 40.702L332.984 38.7143L329.537 36.7266L326.09 38.7143L329.537 40.702Z" fill="#42E8E0"/>
<path d="M322.644 44.6776L326.09 42.6899L322.645 40.7021L319.198 42.6899L322.644 44.6776Z" fill="#42E8E0"/>
<path d="M315.752 48.6543L319.198 46.6665L315.752 44.6772L312.305 46.6665L315.752 48.6543Z" fill="#42E8E0"/>
<path opacity="0.1" d="M308.86 52.6281L312.305 50.642L308.86 48.6543L305.413 50.642L308.86 52.6281Z" fill="#42E8E0"/>
<path opacity="0.4" d="M301.966 56.6053L305.413 54.6176L301.966 52.6299L298.521 54.6176L301.966 56.6053Z" fill="#42E8E0"/>
<path opacity="0.4" d="M295.075 60.5804L298.521 58.5927L295.075 56.605L291.628 58.5927L295.075 60.5804Z" fill="#42E8E0"/>
<path d="M288.181 64.556L291.628 62.5683L288.183 60.5806L284.736 62.5683L288.181 64.556Z" fill="#42E8E0"/>
<path d="M281.291 68.5327L284.736 66.5434L281.291 64.5557L277.844 66.5434L281.291 68.5327Z" fill="#42E8E0"/>
<path d="M274.398 72.507L277.844 70.5209L274.399 68.5332L270.952 70.5209L274.398 72.507Z" fill="#42E8E0"/>
<path opacity="0.4" d="M336.458 44.6932L339.903 42.7055L336.458 40.7178L333.011 42.7055L336.458 44.6932Z" fill="#42E8E0"/>
<path opacity="0.4" d="M329.564 48.6704L333.011 46.6811L329.564 44.6934L326.119 46.6826L329.564 48.6704Z" fill="#42E8E0"/>
<path opacity="0.1" d="M322.672 52.6458L326.119 50.6581L322.674 48.6704L319.227 50.6581L322.672 52.6458Z" fill="#42E8E0"/>
<path d="M315.78 56.6209L319.227 54.6332L315.78 52.6455L312.335 54.6332L315.78 56.6209Z" fill="#42E8E0"/>
<path d="M308.888 60.5965L312.334 58.6088L308.888 56.6211L305.442 58.6088L308.888 60.5965Z" fill="#42E8E0"/>
<path d="M301.995 64.5721L305.442 62.5844L301.995 60.5967L298.55 62.5844L301.995 64.5721Z" fill="#42E8E0"/>
<path opacity="0.4" d="M295.103 68.5472L298.55 66.5595L295.103 64.5718L291.656 66.5595L295.103 68.5472Z" fill="#42E8E0"/>
<path d="M288.21 72.5228L291.656 70.5351L288.211 68.5474L284.765 70.5351L288.21 72.5228Z" fill="#42E8E0"/>
<path d="M281.318 76.4995L284.765 74.5118L281.318 72.5225L277.871 74.5118L281.318 76.4995Z" fill="#42E8E0"/>
<path d="M343.378 48.6863L346.823 46.6986L343.378 44.7109L339.931 46.6986L343.378 48.6863Z" fill="#42E8E0"/>
<path d="M336.485 52.6614L339.931 50.6737L336.485 48.686L333.039 50.6737L336.485 52.6614Z" fill="#42E8E0"/>
<path d="M329.593 56.637L333.039 54.6493L329.593 52.6616L326.148 54.6493L329.593 56.637Z" fill="#42E8E0"/>
<path d="M322.701 60.6121L326.148 58.6244L322.701 56.6367L319.254 58.6244L322.701 60.6121Z" fill="#42E8E0"/>
<path d="M315.807 64.5877L319.254 62.6L315.807 60.6123L312.361 62.6L315.807 64.5877Z" fill="#42E8E0"/>
<path d="M308.916 68.5649L312.361 66.5756L308.916 64.5879L305.469 66.5756L308.916 68.5649Z" fill="#42E8E0"/>
<path d="M302.022 72.5399L305.469 70.5522L302.022 68.5645L298.577 70.5522L302.022 72.5399Z" fill="#42E8E0"/>
<path d="M295.13 76.5154L298.577 74.5277L295.13 72.54L291.685 74.5277L295.13 76.5154Z" fill="#42E8E0"/>
<path d="M288.238 80.491L291.685 78.5033L288.24 76.5156L284.793 78.5033L288.238 80.491Z" fill="#42E8E0"/>
<path d="M350.299 52.6776L353.744 50.6899L350.299 48.7021L346.852 50.6899L350.299 52.6776Z" fill="#42E8E0"/>
<path d="M343.405 56.6531L346.852 54.6654L343.405 52.6777L339.958 54.6654L343.405 56.6531Z" fill="#42E8E0"/>
<path opacity="0.4" d="M336.513 60.6298L339.958 58.6405L336.513 56.6528L333.068 58.6405L336.513 60.6298Z" fill="#42E8E0"/>
<path d="M329.621 64.6037L333.068 62.6176L329.621 60.6299L326.175 62.6176L329.621 64.6037Z" fill="#42E8E0"/>
<path opacity="0.1" d="M322.728 68.5809L326.175 66.5932L322.73 64.6055L319.283 66.5932L322.728 68.5809Z" fill="#42E8E0"/>
<path d="M315.836 72.556L319.283 70.5683L315.836 68.5806L312.391 70.5683L315.836 72.556Z" fill="#42E8E0"/>
<path d="M308.944 76.5316L312.389 74.5439L308.944 72.5562L305.497 74.5439L308.944 76.5316Z" fill="#42E8E0"/>
<path d="M302.051 80.5082L305.497 78.519L302.051 76.5312L298.606 78.519L302.051 80.5082Z" fill="#42E8E0"/>
<path d="M295.159 84.4826L298.606 82.4965L295.159 80.5088L291.712 82.4965L295.159 84.4826Z" fill="#42E8E0"/>
<path d="M357.219 56.6688L360.664 54.6811L357.219 52.6934L353.772 54.6811L357.219 56.6688Z" fill="#42E8E0"/>
<path d="M350.326 60.646L353.772 58.6582L350.326 56.6689L346.879 58.6582L350.326 60.646Z" fill="#42E8E0"/>
<path opacity="0.4" d="M343.434 64.6209L346.879 62.6332L343.434 60.6455L339.987 62.6332L343.434 64.6209Z" fill="#42E8E0"/>
<path d="M336.542 68.5965L339.987 66.6088L336.542 64.6211L333.095 66.6088L336.542 68.5965Z" fill="#42E8E0"/>
<path d="M329.648 72.5721L333.095 70.5844L329.648 68.5967L326.203 70.5844L329.648 72.5721Z" fill="#42E8E0"/>
<path opacity="0.1" d="M322.757 76.5472L326.203 74.5595L322.757 72.5718L319.31 74.5595L322.757 76.5472Z" fill="#42E8E0"/>
<path opacity="0.4" d="M315.863 80.5228L319.31 78.5351L315.863 76.5474L312.416 78.5351L315.863 80.5228Z" fill="#42E8E0"/>
<path d="M308.971 84.4979L312.416 82.5102L308.971 80.5225L305.526 82.5102L308.971 84.4979Z" fill="#42E8E0"/>
<path opacity="0.1" d="M302.079 88.4751L305.526 86.4873L302.079 84.498L298.634 86.4873L302.079 88.4751Z" fill="#42E8E0"/>
<path d="M364.138 60.6614L367.585 58.6737L364.138 56.686L360.693 58.6737L364.138 60.6614Z" fill="#42E8E0"/>
<path opacity="0.4" d="M357.246 64.6355L360.693 62.6493L357.246 60.6616L353.799 62.6493L357.246 64.6355Z" fill="#42E8E0"/>
<path d="M350.353 68.6122L353.799 66.6245L350.354 64.6353L346.907 66.6245L350.353 68.6122Z" fill="#42E8E0"/>
<path d="M343.462 72.5877L346.907 70.6L343.462 68.6123L340.015 70.6L343.462 72.5877Z" fill="#42E8E0"/>
<path d="M336.569 76.5633L340.016 74.5756L336.569 72.5879L333.124 74.5756L336.569 76.5633Z" fill="#42E8E0"/>
<path d="M329.677 80.5405L333.124 78.5528L329.677 76.5635L326.23 78.5528L329.677 80.5405Z" fill="#42E8E0"/>
<path d="M322.784 84.5154L326.23 82.5277L322.784 80.54L319.338 82.5277L322.784 84.5154Z" fill="#42E8E0"/>
<path opacity="0.4" d="M315.892 88.491L319.338 86.5033L315.892 84.5156L312.445 86.5033L315.892 88.491Z" fill="#42E8E0"/>
<path d="M309 92.4666L312.445 90.4789L309 88.4912L305.553 90.4789L309 92.4666Z" fill="#42E8E0"/>
<path d="M371.058 64.6531L374.505 62.6654L371.06 60.6777L367.613 62.6654L371.058 64.6531Z" fill="#42E8E0"/>
<path opacity="0.1" d="M364.166 68.6283L367.613 66.6405L364.166 64.6528L360.72 66.6405L364.166 68.6283Z" fill="#42E8E0"/>
<path d="M357.275 72.6033L360.72 70.6156L357.275 68.6279L353.828 70.6156L357.275 72.6033Z" fill="#42E8E0"/>
<path d="M350.383 76.5789L353.828 74.5912L350.383 72.6035L346.936 74.5912L350.383 76.5789Z" fill="#42E8E0"/>
<path d="M343.489 80.5561L346.936 78.5684L343.489 76.5791L340.043 78.5684L343.489 80.5561Z" fill="#42E8E0"/>
<path d="M336.597 84.5311L340.043 82.5434L336.597 80.5557L333.151 82.5434L336.597 84.5311Z" fill="#42E8E0"/>
<path opacity="0.4" d="M329.704 88.5067L333.151 86.519L329.704 84.5312L326.257 86.519L329.704 88.5067Z" fill="#42E8E0"/>
<path d="M322.812 92.4822L326.257 90.4945L322.812 88.5068L319.365 90.4945L322.812 92.4822Z" fill="#42E8E0"/>
<path d="M315.92 96.4578L319.365 94.4701L315.92 92.4824L312.474 94.4701L315.92 96.4578Z" fill="#42E8E0"/>
<path d="M130.66 471.837C132.32 471.837 133.954 471.402 135.387 470.576L229.655 416.2C230.505 415.708 231.012 414.832 231.012 413.852C231.012 412.871 230.507 411.993 229.655 411.502L170.361 377.3L170.101 377.451L71.3679 434.402C70.5178 434.895 70.0109 435.771 70.0109 436.75C70.0109 437.732 70.5178 438.61 71.3679 439.1L125.937 470.576C127.366 471.4 128.999 471.837 130.66 471.837ZM134.865 469.675C132.317 471.142 128.999 471.142 126.457 469.675L71.8876 438.198C71.3632 437.897 71.0517 437.355 71.0517 436.75C71.0517 436.147 71.3632 435.606 71.8876 435.304L170.361 378.504L170.56 378.616L229.132 412.404C229.657 412.706 229.966 413.247 229.966 413.852C229.966 414.455 229.657 414.997 229.132 415.299L134.865 469.675Z" fill="#8686F2"/>
<path d="M170.482 355.432L157.349 277.586L158.404 277.142L156.818 276.232L156.819 276.242C156.513 276.037 156.076 276.049 155.596 276.327L50.6352 336.87C49.7723 337.367 49.1208 338.643 49.2733 339.534L62.5104 417.997C62.5804 418.407 62.7822 418.678 63.0635 418.798H63.0618L64.616 419.693L64.8829 418.245L64.794 418.272L169.117 358.096C169.982 357.598 170.633 356.323 170.482 355.432Z" fill="url(#paint13_linear_1_3090)"/>
<path d="M51.2232 338.997L49.4974 338.237C49.3036 338.677 49.2082 339.142 49.2749 339.534L62.5119 417.997C62.5818 418.407 62.7837 418.679 63.065 418.798H63.0634L64.6175 419.693L64.8845 418.245L64.7955 418.272L70.0729 415.227L51.2232 338.997Z" fill="url(#paint14_linear_1_3090)"/>
<path d="M170.765 359.038L65.8046 419.582C64.9941 420.051 64.3013 419.781 64.1583 418.942L50.9213 340.477C50.7687 339.587 51.4218 338.312 52.2831 337.813L157.244 277.271C158.056 276.804 158.748 277.072 158.89 277.912L172.129 356.376C172.28 357.268 171.628 358.543 170.765 359.038Z" fill="#24126A"/>
<g opacity="0.51">
<path opacity="0.51" d="M155.872 282.278L54.6984 340.637L67.2458 414.535L168.351 356.215L155.872 282.278Z" fill="#453C9E"/>
</g>
<path d="M236.746 396.187L231.019 399.175L173.58 366.046C172.62 365.49 170.941 365.558 169.831 366.201L70.7695 423.341C69.8208 422.813 65.5 420.734 65.5 420.734L67.5961 426.193C67.5961 426.193 67.6025 426.188 67.604 426.186C67.6915 426.428 67.8773 426.656 68.1904 426.836L128.682 461.73C129.642 462.284 131.322 462.216 132.431 461.574L233.803 403.101C234.259 402.837 234.539 402.52 234.653 402.197L234.661 402.204L236.746 396.187Z" fill="url(#paint15_linear_1_3090)"/>
<path d="M235.859 397.128L131.966 457.055C130.828 457.71 129.107 457.782 128.124 457.215L66.1256 421.454C65.1404 420.887 65.2642 419.895 66.402 419.237L170.295 359.309C171.433 358.654 173.152 358.582 174.137 359.149L236.135 394.91C237.119 395.479 236.997 396.471 235.859 397.128Z" fill="url(#paint16_linear_1_3090)"/>
<path d="M235.86 396.529L131.967 456.456C130.829 457.112 129.108 457.183 128.124 456.616L66.1264 420.857C65.8038 420.671 65.6131 420.436 65.5241 420.187C65.3668 420.652 65.5559 421.125 66.1264 421.454L128.124 457.215C129.108 457.782 130.829 457.712 131.967 457.054L235.86 397.128C236.624 396.687 236.92 396.096 236.738 395.58C236.624 395.918 236.338 396.253 235.86 396.529Z" fill="white"/>
<path d="M100.628 444.092V442.954C100.628 442.846 100.693 442.795 100.774 442.844L104.793 445.16C104.874 445.206 104.939 445.332 104.939 445.441V446.58C104.939 446.688 104.874 446.739 104.793 446.691L100.774 444.373C100.693 444.327 100.628 444.2 100.628 444.092Z" fill="#2842A2"/>
<path d="M106.638 447.559V446.419C106.638 446.313 106.704 446.262 106.785 446.309L110.803 448.627C110.885 448.673 110.95 448.799 110.95 448.908V450.047C110.95 450.153 110.885 450.205 110.803 450.156L106.785 447.838C106.704 447.791 106.638 447.665 106.638 447.559Z" fill="#2842A2"/>
<path d="M82.2881 418.104L168.625 368.303C169.2 367.972 169.91 367.972 170.484 368.305L201.228 386.075C201.67 386.331 201.67 386.967 201.228 387.223L114.933 437C114.357 437.332 113.649 437.332 113.073 437L82.2881 419.252C81.8479 418.996 81.8479 418.36 82.2881 418.104Z" fill="#ADB1F2"/>
<path d="M82.2881 419.252L82.598 419.43L168.625 369.807C169.2 369.475 169.91 369.475 170.484 369.808L200.918 387.401L201.226 387.223C201.668 386.967 201.668 386.331 201.226 386.075L170.482 368.305C169.909 367.972 169.198 367.972 168.623 368.303L82.2866 418.104C81.848 418.36 81.848 418.996 82.2881 419.252Z" fill="#9198DB"/>
<path d="M172.804 372.806L97.8103 416.064L94.4765 414.14L169.472 370.883L172.804 372.806Z" fill="#24126A"/>
<path d="M180.98 377.523L110.637 418.096L107.303 416.172L177.646 375.599L180.98 377.523Z" fill="#24126A"/>
<path d="M186.303 380.592L103.483 428.365L100.151 426.441L182.971 378.669L186.303 380.592Z" fill="#24126A"/>
<path d="M191.628 383.665L108.81 431.437L105.474 429.513L188.294 381.741L191.628 383.665Z" fill="#24126A"/>
<path d="M196.955 386.734L114.133 434.507L110.799 432.583L193.619 384.812L196.955 386.734Z" fill="#24126A"/>
<path d="M93.2783 418.677L89.9444 420.601L86.6106 418.677L89.9444 416.754L93.2783 418.677Z" fill="#24126A"/>
<path d="M105.041 421.324L98.1187 425.317L94.7865 423.393L101.707 419.401L105.041 421.324Z" fill="#24126A"/>
<path d="M171.949 430.156L195.227 416.728C196.136 416.204 196.136 415.353 195.227 414.827L179.308 405.646C178.397 405.121 176.923 405.121 176.014 405.646L152.735 419.074C151.825 419.598 151.825 420.449 152.735 420.975L168.655 430.156C169.564 430.68 171.038 430.68 171.949 430.156Z" fill="url(#paint17_linear_1_3090)"/>
<path d="M152.735 419.851L176.014 406.422C176.923 405.899 178.399 405.899 179.308 406.422L195.228 415.605C195.509 415.769 195.692 415.962 195.798 416.167C196.038 415.708 195.855 415.191 195.228 414.827L179.308 405.646C178.399 405.121 176.923 405.121 176.014 405.646L152.735 419.074C152.106 419.438 151.922 419.954 152.163 420.414C152.27 420.206 152.454 420.012 152.735 419.851Z" fill="#9198DB"/>
<g opacity="0.11">
<g opacity="0.11">
<path opacity="0.11" d="M170.398 359.187L66.5054 419.114C65.3676 419.769 63.6467 419.841 62.663 419.274L0.664932 383.514C-0.320297 382.946 -0.196335 381.954 0.941452 381.298L104.834 321.37C105.972 320.714 107.693 320.643 108.677 321.211L170.675 356.973C171.66 357.538 171.536 358.53 170.398 359.187Z" fill="url(#paint18_linear_1_3090)"/>
<path opacity="0.11" d="M66.1939 369.929L89.4724 356.501C90.3829 355.977 90.3829 355.126 89.4724 354.602L73.5529 345.419C72.644 344.895 71.1677 344.895 70.2587 345.419L46.9803 358.847C46.0713 359.373 46.0713 360.222 46.9803 360.748L62.8997 369.929C63.8087 370.455 65.2849 370.455 66.1939 369.929Z" fill="url(#paint19_linear_1_3090)"/>
<path opacity="0.11" d="M46.9821 359.624L70.2605 346.197C71.1695 345.672 72.6458 345.672 73.5547 346.197L89.4742 355.378C89.7554 355.542 89.9397 355.736 90.0462 355.94C90.2862 355.482 90.1034 354.966 89.4742 354.602L73.5547 345.419C72.6458 344.895 71.1695 344.895 70.2605 345.419L46.9821 358.847C46.3528 359.211 46.1685 359.729 46.4116 360.187C46.5181 359.981 46.7008 359.787 46.9821 359.624Z" fill="#9198DB"/>
<g opacity="0.11">
<path opacity="0.11" d="M36.7483 390.914L123.083 341.115C123.658 340.783 124.369 340.783 124.942 341.115L155.688 358.885C156.128 359.141 156.128 359.779 155.688 360.033L69.3913 409.812C68.8176 410.143 68.1073 410.143 67.5336 409.812L36.7483 392.062C36.3066 391.808 36.3066 391.17 36.7483 390.914Z" fill="#ADB1F2"/>
<path opacity="0.11" d="M36.7488 392.062L37.0571 392.24L123.084 342.619C123.659 342.287 124.369 342.287 124.943 342.619L155.377 360.211L155.687 360.033C156.127 359.779 156.127 359.141 155.687 358.885L124.941 341.115C124.368 340.783 123.657 340.783 123.082 341.115L36.7472 390.914C36.307 391.17 36.3071 391.808 36.7488 392.062Z" fill="#9198DB"/>
<g opacity="0.11">
<path opacity="0.11" d="M147.641 357.676L72.428 401.059L75.4075 402.779L150.62 359.394L147.641 357.676Z" fill="#24126A"/>
<path opacity="0.11" d="M139.716 353.104L68.228 394.339L71.2075 396.058L142.696 354.823L139.716 353.104Z" fill="#24126A"/>
<path opacity="0.11" d="M62.8886 397.419L56.2129 401.272L59.1924 402.99L65.8682 399.138L62.8886 397.419Z" fill="#24126A"/>
<path opacity="0.11" d="M68.7857 403.16L64.1393 405.841L67.1172 407.561L71.7653 404.877L68.7857 403.16Z" fill="#24126A"/>
<path opacity="0.11" d="M134.752 350.239L51.247 398.406L54.2266 400.124L137.73 351.959L134.752 350.239Z" fill="#24126A"/>
<path opacity="0.11" d="M129.786 347.375L46.2811 395.542L49.2606 397.26L132.765 349.093L129.786 347.375Z" fill="#24126A"/>
<path opacity="0.11" d="M124.82 344.511L41.3153 392.677L44.2948 394.396L127.8 346.229L124.82 344.511Z" fill="#24126A"/>
</g>
</g>
</g>
</g>
<path d="M133.598 310.036L125.414 314.762L125.174 313.343L133.36 308.617L133.598 310.036Z" fill="#42E8E0"/>
<path d="M124.097 315.517L119.636 318.093L119.396 316.672L123.859 314.097L124.097 315.517Z" fill="#42E8E0"/>
<path d="M112.697 322.094L109.471 323.958L109.231 322.539L112.458 320.675L112.697 322.094Z" fill="#42E8E0"/>
<path d="M115.052 320.735L113.948 321.371L113.709 319.952L114.81 319.315L115.052 320.735Z" fill="#42E8E0"/>
<path d="M118.303 318.857L116.302 320.013L116.061 318.593L118.065 317.438L118.303 318.857Z" fill="#42E8E0"/>
<path d="M127.123 320.898L123.895 322.761L123.657 321.341L126.883 319.478L127.123 320.898Z" fill="#42E8E0"/>
<path d="M134.696 316.524L128.373 320.174L128.133 318.755L134.456 315.104L134.696 316.524Z" fill="#42E8E0"/>
<path d="M125.632 339.539L119.307 343.191L119.069 341.77L125.39 338.12L125.632 339.539Z" fill="#42E8E0"/>
<path d="M128.885 337.661L126.881 338.818L126.643 337.397L128.643 336.241L128.885 337.661Z" fill="#42E8E0"/>
<path d="M124.577 333.042L118.252 336.694L118.014 335.273L124.335 331.621L124.577 333.042Z" fill="#42E8E0"/>
<path d="M127.83 331.164L125.827 332.32L125.586 330.9L127.588 329.745L127.83 331.164Z" fill="#42E8E0"/>
<path d="M130.298 367.575L142.208 360.697L142.449 362.117L130.539 368.994L130.298 367.575Z" fill="#42E8E0"/>
<path d="M126.101 369.999L129.047 368.297L129.288 369.718L126.341 371.42L126.101 369.999Z" fill="#42E8E0"/>
<path d="M105.169 371.379L117.081 364.501L117.319 365.92L105.409 372.799L105.169 371.379Z" fill="#42E8E0"/>
<path d="M100.973 373.803L103.919 372.103L104.159 373.52L101.212 375.222L100.973 373.803Z" fill="#42E8E0"/>
<path d="M138.434 359.317L141.661 357.454L141.901 358.873L138.674 360.737L138.434 359.317Z" fill="#42E8E0"/>
<path d="M118.801 363.525L122.026 361.661L122.268 363.082L119.041 364.945L118.801 363.525Z" fill="#42E8E0"/>
<path d="M130.86 363.689L137.183 360.04L137.423 361.459L131.1 365.109L130.86 363.689Z" fill="#42E8E0"/>
<path d="M127.607 365.568L129.611 364.412L129.849 365.831L127.847 366.989L127.607 365.568Z" fill="#42E8E0"/>
<path d="M119.976 369.969L126.299 366.315L126.538 367.736L120.216 371.386L119.976 369.969Z" fill="#42E8E0"/>
<path d="M116.722 371.845L118.726 370.689L118.964 372.109L116.964 373.266L116.722 371.845Z" fill="#42E8E0"/>
<path d="M119.349 366.77L122.576 364.906L122.816 366.327L119.589 368.191L119.349 366.77Z" fill="#42E8E0"/>
<path d="M111.775 371.143L118.1 367.49L118.338 368.911L112.015 372.563L111.775 371.143Z" fill="#42E8E0"/>
<path d="M108.522 373.022L110.525 371.864L110.765 373.285L108.764 374.441L108.522 373.022Z" fill="#42E8E0"/>
<path d="M134.51 358.022L141.113 354.21L141.351 355.631L134.75 359.443L134.51 358.022Z" fill="#42E8E0"/>
<path d="M128.484 361.502L133.26 358.744L133.5 360.163L128.724 362.921L128.484 361.502Z" fill="#42E8E0"/>
<path d="M124.006 364.088L127.234 362.225L127.474 363.644L124.248 365.506L124.006 364.088Z" fill="#42E8E0"/>
<path d="M92.7109 378.559L99.3136 374.748L99.5536 376.167L92.9493 379.979L92.7109 378.559Z" fill="#42E8E0"/>
<path d="M86.6852 382.038L91.4604 379.28L91.7003 380.701L86.9251 383.459L86.6852 382.038Z" fill="#42E8E0"/>
<path d="M82.2086 384.623L85.4345 382.759L85.6744 384.18L82.447 386.044L82.2086 384.623Z" fill="#42E8E0"/>
<path d="M95.2885 335.697L88.6874 339.509L88.4458 338.089L95.0501 334.276L95.2885 335.697Z" fill="#42E8E0"/>
<path d="M101.314 332.217L96.539 334.974L96.3006 333.553L101.074 330.797L101.314 332.217Z" fill="#42E8E0"/>
<path d="M105.791 329.632L102.565 331.494L102.325 330.075L105.552 328.211L105.791 329.632Z" fill="#42E8E0"/>
<path d="M97.4814 330.857L90.8788 334.669L90.6373 333.25L97.2415 329.437L97.4814 330.857Z" fill="#42E8E0"/>
<path d="M103.506 327.379L98.732 330.135L98.492 328.714L103.267 325.958L103.506 327.379Z" fill="#42E8E0"/>
<path d="M107.984 324.793L104.756 326.657L104.518 325.236L107.744 323.374L107.984 324.793Z" fill="#42E8E0"/>
<path d="M124.14 336.856L121.91 338.145L121.672 336.724L123.9 335.437L124.14 336.856Z" fill="#42E8E0"/>
<path d="M128.338 334.433L125.39 336.135L125.15 334.714L128.1 333.012L128.338 334.433Z" fill="#42E8E0"/>
<path d="M133.919 354.797L140.522 350.985L140.76 352.405L134.159 356.218L133.919 354.797Z" fill="#42E8E0"/>
<path d="M127.893 358.277L132.668 355.52L132.908 356.94L128.133 359.697L127.893 358.277Z" fill="#42E8E0"/>
<path d="M123.415 360.862L126.644 359L126.883 360.419L123.657 362.283L123.415 360.862Z" fill="#42E8E0"/>
<path d="M137.744 349.028L139.972 347.742L140.213 349.162L137.982 350.449L137.744 349.028Z" fill="#42E8E0"/>
<path d="M133.544 351.454L136.493 349.75L136.732 351.171L133.786 352.873L133.544 351.454Z" fill="#42E8E0"/>
<path d="M127.547 354.917L132.295 352.176L132.535 353.596L127.785 356.337L127.547 354.917Z" fill="#42E8E0"/>
<path d="M121.106 327.913L118.877 329.2L118.635 327.781L120.866 326.492L121.106 327.913Z" fill="#42E8E0"/>
<path d="M125.305 325.488L122.357 327.189L122.118 325.769L125.065 324.069L125.305 325.488Z" fill="#42E8E0"/>
<path d="M131.303 322.024L126.555 324.766L126.314 323.346L131.064 320.604L131.303 322.024Z" fill="#42E8E0"/>
<path d="M117.709 333.179L112.961 335.921L112.722 334.5L117.47 331.758L117.709 333.179Z" fill="#42E8E0"/>
<path d="M125.476 328.949L119.077 332.644L118.835 331.224L125.236 327.528L125.476 328.949Z" fill="#42E8E0"/>
<path d="M128.729 327.07L126.727 328.227L126.487 326.806L128.491 325.65L128.729 327.07Z" fill="#42E8E0"/>
<path d="M131.852 325.268L129.849 326.423L129.609 325.004L131.612 323.847L131.852 325.268Z" fill="#42E8E0"/>
<path d="M131.423 343.597L125.101 347.249L124.86 345.829L131.183 342.178L131.423 343.597Z" fill="#42E8E0"/>
<path d="M134.675 341.72L132.673 342.874L132.433 341.455L134.437 340.299L134.675 341.72Z" fill="#42E8E0"/>
<path d="M130.989 347.412L128.758 348.699L128.518 347.28L130.749 345.991L130.989 347.412Z" fill="#42E8E0"/>
<path d="M123.115 344.813L120.884 346.1L120.644 344.681L122.873 343.394L123.115 344.813Z" fill="#42E8E0"/>
<path d="M119.937 346.645L114.585 349.735L114.343 348.314L119.695 345.228L119.937 346.645Z" fill="#42E8E0"/>
<path d="M113.634 350.279L110.451 352.118L110.213 350.697L113.396 348.86L113.634 350.279Z" fill="#42E8E0"/>
<path d="M135.186 344.988L132.238 346.69L131.999 345.269L134.946 343.568L135.186 344.988Z" fill="#42E8E0"/>
<path d="M135.464 348.321L133.234 349.609L132.994 348.188L135.224 346.9L135.464 348.321Z" fill="#42E8E0"/>
<path d="M139.66 345.897L136.713 347.599L136.474 346.178L139.422 344.477L139.66 345.897Z" fill="#42E8E0"/>
<path d="M126.35 342.946L124.348 344.103L124.108 342.682L126.112 341.526L126.35 342.946Z" fill="#42E8E0"/>
<path d="M129.473 341.144L127.471 342.299L127.231 340.88L129.231 339.723L129.473 341.144Z" fill="#42E8E0"/>
<path d="M114.09 324.841L107.259 328.785L107.019 327.365L113.851 323.42L114.09 324.841Z" fill="#42E8E0"/>
<path d="M121.742 320.422L115.341 324.118L115.101 322.699L121.5 319.003L121.742 320.422Z" fill="#42E8E0"/>
<path d="M124.993 318.544L122.993 319.702L122.751 318.281L124.755 317.125L124.993 318.544Z" fill="#42E8E0"/>
<path d="M128.116 316.741L126.115 317.898L125.874 316.477L127.877 315.321L128.116 316.741Z" fill="#42E8E0"/>
<path d="M129.822 315.756L134.145 313.262L133.905 311.841L129.582 314.337L129.822 315.756Z" fill="#42E8E0"/>
<path d="M121.267 333.228C113.039 333.228 106.369 326.564 106.369 318.344C106.369 310.124 113.039 303.46 121.267 303.46C129.495 303.46 136.165 310.124 136.165 318.344C136.165 326.564 129.495 333.228 121.267 333.228Z" fill="url(#paint20_radial_1_3090)"/>
<path d="M121.267 322.391C119.03 322.391 117.216 320.579 117.216 318.344C117.216 316.109 119.03 314.297 121.267 314.297C123.504 314.297 125.318 316.109 125.318 318.344C125.318 320.579 123.504 322.391 121.267 322.391Z" fill="url(#paint21_radial_1_3090)"/>
<defs>
<linearGradient id="paint0_linear_1_3090" x1="169.791" y1="245.904" x2="137.995" y2="190.782" gradientUnits="userSpaceOnUse">
<stop stop-color="#42E8E0"/>
<stop offset="0.0185" stop-color="#40DEDA"/>
<stop offset="0.1149" stop-color="#37ADBC"/>
<stop offset="1" stop-color="white" stop-opacity="0"/>
</linearGradient>
<linearGradient id="paint1_linear_1_3090" x1="217.357" y1="245.903" x2="249.156" y2="190.78" gradientUnits="userSpaceOnUse">
<stop stop-color="#42E8E0"/>
<stop offset="0.0185" stop-color="#40DEDA"/>
<stop offset="0.1149" stop-color="#37ADBC"/>
<stop offset="0.2166" stop-color="#2E82A2"/>
<stop offset="0.3219" stop-color="#285E8C"/>
<stop offset="0.4319" stop-color="#22417A"/>
<stop offset="0.5479" stop-color="#1E2A6C"/>
<stop offset="0.6729" stop-color="#1A1A63"/>
<stop offset="0.813" stop-color="#19105D"/>
<stop offset="1" stop-color="#180D5B"/>
</linearGradient>
<linearGradient id="paint2_linear_1_3090" x1="217.355" y1="273.335" x2="249.151" y2="328.456" gradientUnits="userSpaceOnUse">
<stop stop-color="#42E8E0"/>
<stop offset="0.0185" stop-color="#40DEDA"/>
<stop offset="0.1149" stop-color="#37ADBC"/>
<stop offset="0.2166" stop-color="#2E82A2"/>
<stop offset="0.3219" stop-color="#285E8C"/>
<stop offset="0.4319" stop-color="#22417A"/>
<stop offset="0.5479" stop-color="#1E2A6C"/>
<stop offset="0.6729" stop-color="#1A1A63"/>
<stop offset="0.813" stop-color="#19105D"/>
<stop offset="1" stop-color="#180D5B"/>
</linearGradient>
<linearGradient id="paint3_linear_1_3090" x1="169.795" y1="273.335" x2="137.995" y2="328.461" gradientUnits="userSpaceOnUse">
<stop stop-color="#42E8E0"/>
<stop offset="0.0185" stop-color="#40DEDA"/>
<stop offset="0.1149" stop-color="#37ADBC"/>
<stop offset="1" stop-color="white" stop-opacity="0"/>
</linearGradient>
<linearGradient id="paint4_linear_1_3090" x1="284.831" y1="273.058" x2="128.33" y2="273.058" gradientUnits="userSpaceOnUse">
<stop stop-color="#5761D7"/>
<stop offset="0.1645" stop-color="#5E67DA"/>
<stop offset="0.4051" stop-color="#727AE2"/>
<stop offset="0.6924" stop-color="#9297EE"/>
<stop offset="1" stop-color="#BCBEFF"/>
</linearGradient>
<linearGradient id="paint5_linear_1_3090" x1="240.541" y1="251.929" x2="146.605" y2="251.929" gradientUnits="userSpaceOnUse">
<stop stop-color="#42E8E0"/>
<stop offset="0.1507" stop-color="#43E3E0"/>
<stop offset="0.3285" stop-color="#45D5DF"/>
<stop offset="0.5199" stop-color="#49BDDD"/>
<stop offset="0.7209" stop-color="#4E9CDB"/>
<stop offset="0.9274" stop-color="#5472D8"/>
<stop offset="1" stop-color="#5761D7"/>
</linearGradient>
<linearGradient id="paint6_linear_1_3090" x1="193.572" y1="234.967" x2="146.604" y2="234.967" gradientUnits="userSpaceOnUse">
<stop stop-color="#42E8E0"/>
<stop offset="0.1507" stop-color="#43E3E0"/>
<stop offset="0.3285" stop-color="#45D5DF"/>
<stop offset="0.5199" stop-color="#49BDDD"/>
<stop offset="0.7209" stop-color="#4E9CDB"/>
<stop offset="0.9274" stop-color="#5472D8"/>
<stop offset="1" stop-color="#5761D7"/>
</linearGradient>
<linearGradient id="paint7_linear_1_3090" x1="240.541" y1="234.968" x2="193.571" y2="234.968" gradientUnits="userSpaceOnUse">
<stop stop-color="#42E8E0"/>
<stop offset="0.1507" stop-color="#43E3E0"/>
<stop offset="0.3285" stop-color="#45D5DF"/>
<stop offset="0.5199" stop-color="#49BDDD"/>
<stop offset="0.7209" stop-color="#4E9CDB"/>
<stop offset="0.9274" stop-color="#5472D8"/>
<stop offset="1" stop-color="#5761D7"/>
</linearGradient>
<linearGradient id="paint8_linear_1_3090" x1="240.541" y1="245.098" x2="146.605" y2="245.098" gradientUnits="userSpaceOnUse">
<stop stop-color="#42E8E0"/>
<stop offset="0.1507" stop-color="#43E3E0"/>
<stop offset="0.3285" stop-color="#45D5DF"/>
<stop offset="0.5199" stop-color="#49BDDD"/>
<stop offset="0.7209" stop-color="#4E9CDB"/>
<stop offset="0.9274" stop-color="#5472D8"/>
<stop offset="1" stop-color="#5761D7"/>
</linearGradient>
<linearGradient id="paint9_linear_1_3090" x1="193.571" y1="262.06" x2="146.604" y2="262.06" gradientUnits="userSpaceOnUse">
<stop stop-color="#42E8E0"/>
<stop offset="0.1507" stop-color="#43E3E0"/>
<stop offset="0.3285" stop-color="#45D5DF"/>
<stop offset="0.5199" stop-color="#49BDDD"/>
<stop offset="0.7209" stop-color="#4E9CDB"/>
<stop offset="0.9274" stop-color="#5472D8"/>
<stop offset="1" stop-color="#5761D7"/>
</linearGradient>
<linearGradient id="paint10_linear_1_3090" x1="240.541" y1="262.059" x2="193.571" y2="262.059" gradientUnits="userSpaceOnUse">
<stop stop-color="#42E8E0"/>
<stop offset="0.1507" stop-color="#43E3E0"/>
<stop offset="0.3285" stop-color="#45D5DF"/>
<stop offset="0.5199" stop-color="#49BDDD"/>
<stop offset="0.7209" stop-color="#4E9CDB"/>
<stop offset="0.9274" stop-color="#5472D8"/>
<stop offset="1" stop-color="#5761D7"/>
</linearGradient>
<linearGradient id="paint11_linear_1_3090" x1="261.544" y1="344.611" x2="261.544" y2="115.797" gradientUnits="userSpaceOnUse">
<stop stop-color="#C0BFF6"/>
<stop offset="0.2938" stop-color="#C5C4F7"/>
<stop offset="0.6399" stop-color="#D3D2F9"/>
<stop offset="1" stop-color="#E9E9FD"/>
</linearGradient>
<linearGradient id="paint12_linear_1_3090" x1="261.544" y1="138.778" x2="261.544" y2="64.6826" gradientUnits="userSpaceOnUse">
<stop stop-color="#C0BFF6"/>
<stop offset="0.2938" stop-color="#C5C4F7"/>
<stop offset="0.6399" stop-color="#D3D2F9"/>
<stop offset="1" stop-color="#E9E9FD"/>
</linearGradient>
<linearGradient id="paint13_linear_1_3090" x1="49.2533" y1="347.896" x2="170.505" y2="347.896" gradientUnits="userSpaceOnUse">
<stop stop-color="#C0BFF6"/>
<stop offset="0.2938" stop-color="#C5C4F7"/>
<stop offset="0.6399" stop-color="#D3D2F9"/>
<stop offset="1" stop-color="#E9E9FD"/>
</linearGradient>
<linearGradient id="paint14_linear_1_3090" x1="49.254" y1="378.964" x2="70.0727" y2="378.964" gradientUnits="userSpaceOnUse">
<stop stop-color="#5761D7"/>
<stop offset="0.1779" stop-color="#5C66D9"/>
<stop offset="0.3876" stop-color="#6A73DF"/>
<stop offset="0.6134" stop-color="#8289E8"/>
<stop offset="0.849" stop-color="#A3A7F5"/>
<stop offset="1" stop-color="#BCBEFF"/>
</linearGradient>
<linearGradient id="paint15_linear_1_3090" x1="65.4985" y1="413.887" x2="236.746" y2="413.887" gradientUnits="userSpaceOnUse">
<stop stop-color="#5761D7"/>
<stop offset="0.1779" stop-color="#5C66D9"/>
<stop offset="0.3876" stop-color="#6A73DF"/>
<stop offset="0.6134" stop-color="#8289E8"/>
<stop offset="0.849" stop-color="#A3A7F5"/>
<stop offset="1" stop-color="#BCBEFF"/>
</linearGradient>
<linearGradient id="paint16_linear_1_3090" x1="123.037" y1="408.183" x2="294.375" y2="408.183" gradientUnits="userSpaceOnUse">
<stop stop-color="#C0BFF6"/>
<stop offset="0.2938" stop-color="#C5C4F7"/>
<stop offset="0.6399" stop-color="#D3D2F9"/>
<stop offset="1" stop-color="#E9E9FD"/>
</linearGradient>
<linearGradient id="paint17_linear_1_3090" x1="152.053" y1="417.901" x2="195.911" y2="417.901" gradientUnits="userSpaceOnUse">
<stop stop-color="#C0BFF6"/>
<stop offset="0.2938" stop-color="#C5C4F7"/>
<stop offset="0.6399" stop-color="#D3D2F9"/>
<stop offset="1" stop-color="#E9E9FD"/>
</linearGradient>
<linearGradient id="paint18_linear_1_3090" x1="57.5759" y1="370.241" x2="228.914" y2="370.241" gradientUnits="userSpaceOnUse">
<stop stop-color="#C0BFF6"/>
<stop offset="0.2938" stop-color="#C5C4F7"/>
<stop offset="0.6399" stop-color="#D3D2F9"/>
<stop offset="1" stop-color="#E9E9FD"/>
</linearGradient>
<linearGradient id="paint19_linear_1_3090" x1="46.2994" y1="357.674" x2="90.1566" y2="357.674" gradientUnits="userSpaceOnUse">
<stop stop-color="#C0BFF6"/>
<stop offset="0.2938" stop-color="#C5C4F7"/>
<stop offset="0.6399" stop-color="#D3D2F9"/>
<stop offset="1" stop-color="#E9E9FD"/>
</linearGradient>
<radialGradient id="paint20_radial_1_3090" cx="0" cy="0" r="1" gradientUnits="userSpaceOnUse" gradientTransform="translate(121.269 318.343) rotate(-149.712) scale(14.8942 14.8875)">
<stop stop-color="#42E8E0"/>
<stop offset="0.0042" stop-color="#41E5DE"/>
<stop offset="1" stop-color="white" stop-opacity="0"/>
</radialGradient>
<radialGradient id="paint21_radial_1_3090" cx="0" cy="0" r="1" gradientUnits="userSpaceOnUse" gradientTransform="translate(121.269 318.343) rotate(-149.712) scale(4.04932 4.04749)">
<stop stop-color="#42E8E0"/>
<stop offset="1" stop-color="#42E8E0"/>
</radialGradient>
</defs>
</svg>
