<svg width="176" height="16" viewBox="0 0 176 16" fill="none" xmlns="http://www.w3.org/2000/svg">
<path d="M7.58 15L4.5 9.56H3.18V15H0.38V1.04H5.62C6.7 1.04 7.62 1.23333 8.38 1.62C9.14 1.99333 9.70667 2.50667 10.08 3.16C10.4667 3.8 10.66 4.52 10.66 5.32C10.66 6.24 10.3933 7.07333 9.86 7.82C9.32667 8.55333 8.53333 9.06 7.48 9.34L10.82 15H7.58ZM3.18 7.46H5.52C6.28 7.46 6.84667 7.28 7.22 6.92C7.59333 6.54667 7.78 6.03333 7.78 5.38C7.78 4.74 7.59333 4.24667 7.22 3.9C6.84667 3.54 6.28 3.36 5.52 3.36H3.18V7.46ZM23.9325 15L22.4125 13.5C21.1192 14.66 19.5392 15.24 17.6725 15.24C16.6458 15.24 15.7392 15.0667 14.9525 14.72C14.1792 14.36 13.5792 13.86 13.1525 13.22C12.7258 12.5667 12.5125 11.8133 12.5125 10.96C12.5125 10.04 12.7725 9.21333 13.2925 8.48C13.8125 7.74667 14.5792 7.15333 15.5925 6.7C15.2325 6.26 14.9725 5.84 14.8125 5.44C14.6525 5.02667 14.5725 4.58667 14.5725 4.12C14.5725 3.48 14.7392 2.90667 15.0725 2.4C15.4058 1.88 15.8792 1.47333 16.4925 1.18C17.1192 0.886666 17.8458 0.739999 18.6725 0.739999C19.5125 0.739999 20.2325 0.899999 20.8325 1.22C21.4325 1.54 21.8792 1.96667 22.1725 2.5C22.4658 3.03333 22.5925 3.62667 22.5525 4.28H19.8325C19.8458 3.84 19.7392 3.50667 19.5125 3.28C19.2858 3.04 18.9792 2.92 18.5925 2.92C18.2192 2.92 17.9058 3.03333 17.6525 3.26C17.4125 3.47333 17.2925 3.75333 17.2925 4.1C17.2925 4.43333 17.3925 4.76667 17.5925 5.1C17.7925 5.42 18.1192 5.82 18.5725 6.3L22.0925 9.78C22.1192 9.75333 22.1392 9.72667 22.1525 9.7C22.1658 9.67333 22.1792 9.64667 22.1925 9.62L23.3325 7.72H26.2525L24.8525 10.18C24.5858 10.7 24.2992 11.1933 23.9925 11.66L27.3725 15H23.9325ZM17.7525 12.92C18.8458 12.92 19.8125 12.5333 20.6525 11.76L17.2125 8.36C15.9192 8.93333 15.2725 9.74667 15.2725 10.8C15.2725 11.4 15.4992 11.9067 15.9525 12.32C16.4058 12.72 17.0058 12.92 17.7525 12.92ZM33.6389 1.04C35.1056 1.04 36.3922 1.32667 37.4989 1.9C38.6189 2.47333 39.4789 3.29333 40.0789 4.36C40.6922 5.41333 40.9989 6.64 40.9989 8.04C40.9989 9.44 40.6922 10.6667 40.0789 11.72C39.4789 12.76 38.6189 13.5667 37.4989 14.14C36.3922 14.7133 35.1056 15 33.6389 15H28.7589V1.04H33.6389ZM33.5389 12.62C35.0056 12.62 36.1389 12.22 36.9389 11.42C37.7389 10.62 38.1389 9.49333 38.1389 8.04C38.1389 6.58667 37.7389 5.45333 36.9389 4.64C36.1389 3.81333 35.0056 3.4 33.5389 3.4H31.5589V12.62H33.5389ZM55.7805 7.84C56.5671 7.98667 57.2138 8.38 57.7205 9.02C58.2271 9.66 58.4805 10.3933 58.4805 11.22C58.4805 11.9667 58.2938 12.6267 57.9205 13.2C57.5605 13.76 57.0338 14.2 56.3405 14.52C55.6471 14.84 54.8271 15 53.8805 15H47.8605V1.04H53.6205C54.5671 1.04 55.3805 1.19333 56.0605 1.5C56.7538 1.80667 57.2738 2.23333 57.6205 2.78C57.9805 3.32667 58.1605 3.94667 58.1605 4.64C58.1605 5.45333 57.9405 6.13333 57.5005 6.68C57.0738 7.22667 56.5005 7.61333 55.7805 7.84ZM50.6605 6.8H53.2205C53.8871 6.8 54.4005 6.65333 54.7605 6.36C55.1205 6.05333 55.3005 5.62 55.3005 5.06C55.3005 4.5 55.1205 4.06667 54.7605 3.76C54.4005 3.45333 53.8871 3.3 53.2205 3.3H50.6605V6.8ZM53.4805 12.72C54.1605 12.72 54.6871 12.56 55.0605 12.24C55.4471 11.92 55.6405 11.4667 55.6405 10.88C55.6405 10.28 55.4405 9.81333 55.0405 9.48C54.6405 9.13333 54.1005 8.96 53.4205 8.96H50.6605V12.72H53.4805ZM63.512 12.78H68.112V15H60.712V1.04H63.512V12.78ZM76.3717 15.14C75.0651 15.14 73.8651 14.8333 72.7717 14.22C71.6784 13.6067 70.8117 12.76 70.1717 11.68C69.5317 10.5867 69.2117 9.35333 69.2117 7.98C69.2117 6.62 69.5317 5.4 70.1717 4.32C70.8117 3.22667 71.6784 2.37333 72.7717 1.76C73.8651 1.14667 75.0651 0.84 76.3717 0.84C77.6917 0.84 78.8917 1.14667 79.9717 1.76C81.0651 2.37333 81.9251 3.22667 82.5517 4.32C83.1917 5.4 83.5117 6.62 83.5117 7.98C83.5117 9.35333 83.1917 10.5867 82.5517 11.68C81.9251 12.76 81.0651 13.6067 79.9717 14.22C78.8784 14.8333 77.6784 15.14 76.3717 15.14ZM76.3717 12.64C77.2117 12.64 77.9517 12.4533 78.5917 12.08C79.2317 11.6933 79.7317 11.1467 80.0917 10.44C80.4517 9.73333 80.6317 8.91333 80.6317 7.98C80.6317 7.04667 80.4517 6.23333 80.0917 5.54C79.7317 4.83333 79.2317 4.29333 78.5917 3.92C77.9517 3.54667 77.2117 3.36 76.3717 3.36C75.5317 3.36 74.7851 3.54667 74.1317 3.92C73.4917 4.29333 72.9917 4.83333 72.6317 5.54C72.2717 6.23333 72.0917 7.04667 72.0917 7.98C72.0917 8.91333 72.2717 9.73333 72.6317 10.44C72.9917 11.1467 73.4917 11.6933 74.1317 12.08C74.7851 12.4533 75.5317 12.64 76.3717 12.64ZM84.9148 8C84.9148 6.62667 85.2215 5.4 85.8348 4.32C86.4615 3.22667 87.3082 2.38 88.3748 1.78C89.4548 1.16667 90.6615 0.86 91.9948 0.86C93.5548 0.86 94.9215 1.26 96.0948 2.06C97.2682 2.86 98.0882 3.96667 98.5548 5.38H95.3348C95.0148 4.71333 94.5615 4.21333 93.9748 3.88C93.4015 3.54667 92.7348 3.38 91.9748 3.38C91.1615 3.38 90.4348 3.57333 89.7948 3.96C89.1682 4.33333 88.6748 4.86667 88.3148 5.56C87.9682 6.25333 87.7948 7.06667 87.7948 8C87.7948 8.92 87.9682 9.73333 88.3148 10.44C88.6748 11.1333 89.1682 11.6733 89.7948 12.06C90.4348 12.4333 91.1615 12.62 91.9748 12.62C92.7348 12.62 93.4015 12.4533 93.9748 12.12C94.5615 11.7733 95.0148 11.2667 95.3348 10.6H98.5548C98.0882 12.0267 97.2682 13.14 96.0948 13.94C94.9348 14.7267 93.5682 15.12 91.9948 15.12C90.6615 15.12 89.4548 14.82 88.3748 14.22C87.3082 13.6067 86.4615 12.76 85.8348 11.68C85.2215 10.6 84.9148 9.37333 84.9148 8ZM108.826 15L103.746 8.78V15H100.946V1.04H103.746V7.3L108.826 1.04H112.206L106.446 7.96L112.366 15H108.826ZM113.528 8C113.528 6.62667 113.835 5.4 114.448 4.32C115.075 3.22667 115.921 2.38 116.988 1.78C118.068 1.16667 119.275 0.86 120.608 0.86C122.168 0.86 123.535 1.26 124.708 2.06C125.881 2.86 126.701 3.96667 127.168 5.38H123.948C123.628 4.71333 123.175 4.21333 122.588 3.88C122.015 3.54667 121.348 3.38 120.588 3.38C119.775 3.38 119.048 3.57333 118.408 3.96C117.781 4.33333 117.288 4.86667 116.928 5.56C116.581 6.25333 116.408 7.06667 116.408 8C116.408 8.92 116.581 9.73333 116.928 10.44C117.288 11.1333 117.781 11.6733 118.408 12.06C119.048 12.4333 119.775 12.62 120.588 12.62C121.348 12.62 122.015 12.4533 122.588 12.12C123.175 11.7733 123.628 11.2667 123.948 10.6H127.168C126.701 12.0267 125.881 13.14 124.708 13.94C123.548 14.7267 122.181 15.12 120.608 15.12C119.275 15.12 118.068 14.82 116.988 14.22C115.921 13.6067 115.075 12.76 114.448 11.68C113.835 10.6 113.528 9.37333 113.528 8ZM141.14 1.04V15H138.34V9.06H132.36V15H129.56V1.04H132.36V6.78H138.34V1.04H141.14ZM152.456 12.34H146.896L145.976 15H143.036L148.056 1.02H151.316L156.336 15H153.376L152.456 12.34ZM151.696 10.1L149.676 4.26L147.656 10.1H151.696ZM161.012 1.04V15H158.212V1.04H161.012ZM175.718 15H172.918L166.578 5.42V15H163.778V1.02H166.578L172.918 10.62V1.02H175.718V15Z" fill="white"/>
</svg>
